<?xml version="1.0" encoding="UTF-8"?>
<svg id="_レイヤー_1" data-name="レイヤー 1" xmlns="http://www.w3.org/2000/svg" width="928" height="64" version="1.1" viewBox="0 0 928 64">
  <defs>
    <style>
      .cls-1 {
        stroke: #fff;
      }

      .cls-1, .cls-2 {
        fill: #fff;
      }

      .cls-2 {
        stroke-width: 0px;
      }
    </style>
  </defs>
  <g id="_グループ_431" data-name="グループ 431">
    <path id="_パス_2905" data-name="パス 2905" class="cls-1" d="M500.1145325,41.5358047l1.0599995.5300007c-.0116425.5942078.134675,1.1808558.4239998,1.6999998.7415209,1.0669794,1.7454605,1.9248924,2.914999,2.4910002,1.5909424.8736305,3.2585793,1.5996647,4.9820023,2.1689987,1.9226971.6490984,3.8885098,1.1626892,5.8829994,1.5369997,1.8153191.3645802,3.6605797.5597525,5.512001.5830002,1.2000008,0,2.7546654-.0883331,4.6640015-.2650003,1.9060364-.17628,3.788723-.5492649,5.618-1.1129999,1.7101631-.5026989,3.3229294-1.2911625,4.7700005-2.3319998,1.2889519-.8847675,2.0459518-2.3589277,2.0139999-3.921999.0893326-1.4495239-.6227493-2.831459-1.8549995-3.6000004-1.5015373-.8735409-3.1568375-1.450655-4.8759995-1.7000008-2.2790909-.3803577-4.580719-.6105194-6.8899994-.6889992-2.5793304-.1060009-5.2126656-.2649994-7.8999996-.4769993-2.6508923-.2071247-5.288269-.5609989-7.8999996-1.0599995-2.4204483-.4368114-4.7498226-1.2789688-6.8899994-2.4909992-1.9994249-1.1545601-3.6746283-2.7957096-4.8700056-4.7710018-1.335844-2.4115658-1.9778957-5.1459064-1.8550005-7.8999996.012557-2.244339.5382967-4.4560738,1.5369997-6.4659996,1.1071682-2.2174225,2.7235842-4.1412239,4.717001-5.6140022,2.4342089-1.7826271,5.1602678-3.1277237,8.0560007-3.9749985,3.7160549-1.0895462,7.5761585-1.6077995,11.4480019-1.5369987,3.2708015-.0429497,6.5377045.2411308,9.7519989.8479996,2.4140625.4779129,4.802166,1.0786934,7.1549988,1.7999992,2.0139999.6359978,3.7099991,1.2360001,5.0880013,1.7999992,1.0848541.4966011,2.2535858.7842865,3.4449997.8479996.7626915.0738716,1.5239182-.1544952,2.1199989-.6360016l1.2719994.8479996-7.3139992,13.2540016-1.0600014-.4239998c-.0973473-.8657303-.387085-1.6987267-.8479996-2.4379997-.7520218-1.0174599-1.7089233-1.8660316-2.8090019-2.4910011-1.458046-.8838425-3.0048561-1.6121674-4.6149979-2.1729965-1.8645096-.6623878-3.7784729-1.1763229-5.723999-1.5369987-2.0265427-.3865089-4.0849266-.5816994-6.1479988-.5830002-1.6146164.0045662-3.2266808.1285706-4.823.3709984-1.5340366.2165375-3.0418911.5894775-4.5,1.112999-1.2308254.4283867-2.3653622,1.0946999-3.3390007,1.9609985-.8626308.7645531-1.3471909,1.868515-1.3260021,3.0209999-.0921497,1.5089912.6114159,2.9563217,1.8549995,3.8159981,1.4854259.9477501,3.1418362,1.5959129,4.8759995,1.9080009,2.271946.4563179,4.5752087.7397957,6.8899994.8479996,2.5793343.1413345,5.2126656.3180008,7.9000015.5299988,2.6538162.2072868,5.2922173.5789986,7.9000015,1.112999,2.4189758.4703674,4.7457809,1.3294983,6.8899994,2.5440006,1.991169,1.1438942,3.666748,2.7648335,4.8759995,4.717001,1.3290749,2.3537292,1.9697762,5.0336533,1.848999,7.7340031.1390991,3.2555656-.8953209,6.4528637-2.9150009,9.0100002-1.9766884,2.3592491-4.458107,4.2443223-7.2609978,5.5160003-2.9744339,1.3639228-6.1366043,2.2740445-9.3810005,2.7-3.1078377.4413843-6.2420235.671579-9.3810005.689-3.3873749.047037-6.7729397-.1823915-10.1229992-.6860002-2.3089943-.3558824-4.5800381-.9249828-6.7840004-1.7000001-1.4608135-.5262601-2.893692-1.1270494-4.2930002-1.8-.845871-.4727914-1.7884474-.7463987-2.7559996-.8-.5724382.0428643-1.0881119.3618946-1.382.855l-1.4799995-.848,5.8299999-12.8259997ZM593.8145294,55.2098045c-.0000076,1.2720001.7773361,1.908,2.3320007,1.908v1.908h-16.3199997v-1.908c.4843597.0037557.9541779-.1653783,1.3249969-.477.4069595-.3599102.6225815-.8891644.5830002-1.431V13.0258045h-17.4899979c-.6549377.0053139-1.2961197.1885071-1.8550034.5299988-.6500931.4526367-.9964676,1.2277489-.9000015,2.0139999h-1.908989V.7258053h1.9079971c-.0964661.7862549.2499084,1.5613632.9000015,2.0139999.5588837.3414917,1.2000656.5246849,1.8550034.5299988h47.064003c.6549377-.0053139,1.2961197-.1885071,1.8550034-.5299988.6500931-.4526367.9964676-1.2277489.9000015-2.0139999h1.9080048v14.8400002h-1.9060211c.0964661-.7862549-.2499084-1.5613632-.9000015-2.0139999-.5588837-.3414917-1.2000656-.5246849-1.8550034-.5299988h-17.4899979l-.0049973,42.1879978ZM659.3265381,12.3858051c-2.734726.00774-5.4519348.4367714-8.0559998,1.2719994-2.606308.8081131-5.0601044,2.0439644-7.2610016,3.6570015-2.1404114,1.573307-3.9277496,3.5772896-5.246994,5.8829994-1.3664093,2.4237289-2.0616302,5.168047-2.0140076,7.9500008-.0476227,2.7819538.6475983,5.5262699,2.0140076,7.9500008,1.3192444,2.3057079,3.1065826,4.3096924,5.246994,5.8829994,2.2008972,1.6130352,4.6546936,2.8488874,7.2610016,3.6569996,2.6040649.835227,5.3212738,1.2642603,8.0559998,1.2720003,2.734726-.00774,5.4519348-.4367723,8.0559998-1.2720003,2.606308-.8081121,5.0601044-2.0439644,7.2610016-3.6569996,2.1404419-1.5732851,3.9277802-3.5772743,5.246994-5.8829994,1.3664093-2.4237309,2.0616302-5.168047,2.0140076-7.9500008.0476227-2.7819538-.6475983-5.5262718-2.0140076-7.9500008-1.3192139-2.3057251-3.1065521-4.3097153-5.246994-5.8829994-2.2008972-1.6130371-4.6546936-2.8488884-7.2610016-3.6570015-2.6040649-.835228-5.3212738-1.2642593-8.0559998-1.2719994ZM659.3265381,2.6338062c4.0200653.0194397,8.0171051.6082916,11.871994,1.7490005,3.9404144,1.1231346,7.6661072,2.8950691,11.0240021,5.2429962,3.3221741,2.3328667,6.105423,5.351059,8.1620026,8.8509979,2.1938629,3.8539162,3.2934265,8.2338524,3.1799927,12.6669998.1134186,4.4331493-.9861298,8.8130836-3.1799927,12.6669998-2.0565796,3.499939-4.8398285,6.5181341-8.1620026,8.8509998-3.341095,2.3411469-7.0748138,4.0644009-11.0240021,5.0879998-3.8721161,1.0406571-7.8625183,1.5764315-11.871994,1.5940043-4.0093079-.0162673-7.9996948-.5506943-11.871994-1.5900001-3.9492035-1.023597-7.6829224-2.7468517-11.0240173-5.0880001-3.3221741-2.3328662-6.105423-5.3510613-8.1620026-8.8510003-2.1938629-3.8539162-3.2934265-8.2338505-3.1799927-12.6669998-.1134186-4.4331493.9861298-8.8130817,3.1799927-12.6669979,2.0565796-3.499939,4.8398285-6.5181313,8.1620026-8.8509979,3.3576202-2.3493385,7.0833435-4.1226311,11.0240021-5.2470016,3.8548889-1.1407089,7.8519287-1.7295609,11.8720093-1.7490005ZM740.4165344,28.0738068c2.134964.0396004,4.2677917-.1559105,6.3599854-.5830002,1.4367981-.2803574,2.8050537-.8384571,4.0280151-1.6429996.9190063-.6232491,1.6517029-1.4841652,2.1199951-2.4910011.4324951-.9866219.6506348-2.0538025.6400146-3.1310005.011322-1.0755615-.2054443-2.1413078-.6359863-3.1269989-.4682922-1.0068359-1.2009888-1.8677521-2.1199951-2.4910011-1.2229614-.8045425-2.591217-1.3626442-4.0280151-1.6430016-2.0921936-.4270897-4.2250366-.6226006-6.3600006-.5830002h-18.3420105v15.6879997l18.3379974.0040035ZM743.1725464,3.2738056c3.0973206-.0298386,6.1889038.2718773,9.2220154.9000015,2.5233459.5065231,4.9307861,1.4769554,7.1000061,2.8619995,1.941803,1.265377,3.5148621,3.0212822,4.559967,5.0899963,1.1282959,2.400547,1.6730957,5.0338211,1.5899963,7.6850014,0,4.6666641-1.3779907,8.2353344-4.1340027,10.7060013-3.1732178,2.6654644-7.0281982,4.3910351-11.1300049,4.9820004l14.1000061,20.1399994c.394989.6356885,1.022522,1.0920799,1.7489929,1.2719998.609375.1344039,1.2310181.2054483,1.855011.212v1.9029993h-19.8200073v-1.908c.5642395.0143273,1.1248474-.0941782,1.6430054-.3180001.4593201-.2119999.6889954-.4946668.6889954-.848-.0276794-.4373662-.1742859-.8588655-.4240112-1.2190001-.2826843-.4593334-.706665-1.0776668-1.2720032-1.855l-11.6600037-16.5359998h-15.161972v18.868c-.0349579.5643885.2259979,1.1063693.6889954,1.431.7701111.3866974,1.6325073.551838,2.4909973.477v1.908h-18.3379974v-1.908c2.0493469,0,3.0740051-.6359999,3.0740051-1.908V7.0858059c0-1.2720032-1.0246582-1.9080048-3.0740051-1.9080009v-1.9080009l36.2520142.0040016ZM796.0665588,3.2738056v1.9080009c-.6099548-.0035553-1.2169189.085804-1.7999878.2649994-.5671692.1768188-.9249878.7359238-.8479919,1.3250008.3151245,1.0957413.8368225,2.1211433,1.5369873,3.0209999,1.0246582,1.5899963,2.2246704,3.3919983,3.6000061,5.406002s2.806366,4.0806694,4.2929993,6.2000008c1.4840088,2.1200027,2.684021,3.9220009,3.6000061,5.406002l12.3999939-17.0660019c.5653076-.8479996,1.0246582-1.5193291,1.3779907-2.0139999.3157654-.3929787.5010376-.8747025.5299988-1.3779984,0-.4946671-.3356628-.812664-1.0069885-.9539986-.609375-.1344109-1.2310181-.2054558-1.855011-.2120018v-1.9080009h18.5499878v1.9080009c-.5341187-.0031662-1.0670776.0501289-1.5899963.1590004-.5588379.1363831-1.0826111.3892326-1.5369873.7420006-.6360474.492775-1.2072449,1.0639687-1.7000122,1.7000008-.5999756.7419968-1.3243103,1.7489967-2.1730042,3.0209999l-18.019989,25.5459995v18.8609924c0,1.2720001.8126526,1.908,2.4379883,1.908v1.908h-16.7360229v-1.908c.5681152.020803,1.1271667-.1469088,1.5899963-.477.4356384-.3424375.6737366-.8781662.6359863-1.431v-18.868l-20.4579773-28.6159992c-.5930481-.7852097-1.3777466-1.4049988-2.2789917-1.7999992-.802063-.4342918-1.6895447-.6875648-2.6000061-.7420006v-1.9080009l22.0510254-.0019989ZM840.3745422,28.6038036c1.2704468-.3779373,2.4820557-.9309139,3.6000061-1.6430016,1.3301086-.8028259,2.5580444-1.7638283,3.6570129-2.8619995,1.0611877-1.0519714,1.9700012-2.2472191,2.7000122-3.5509987.6801147-1.14991.9770813-2.4862633.8479919-3.8159981-.1585999-.5092392-.6326599-.8540039-1.1659851-.8479996-.5975952-.0684052-1.1984863-.1037903-1.7999878-.105999-1.702179.0223503-3.3490295-.6040611-4.6060486-1.7520027-1.3518066-1.2712212-2.0700684-3.0765839-1.9609985-4.9290009-.0249939-1.9883652.7593994-3.9014626,2.1730042-5.2999992,1.2589417-1.3992767,3.046814-2.2067108,4.9289856-2.2260017,2.5241394-.14674,4.9464722,1.0143738,6.4129944,3.0740013,1.4989319,2.2171783,2.2594299,4.851078,2.1730042,7.526001.0026855,2.3194427-.4849548,4.6132545-1.4309998,6.730999-.9455872,2.1421738-2.2147217,4.1263275-3.7630005,5.8829994-1.5674744,1.7774963-3.3891907,3.3134403-5.4060059,4.5580006-1.9565125,1.2334728-4.1064758,2.1292858-6.3599854,2.6499996v-3.3889999ZM876.0965271,41.5358047l1.0599976.5300007c-.0116272.5942097.1346741,1.1808577.4240112,1.6999998.7415161,1.0669813,1.7454529,1.9248934,2.9150085,2.4910002,1.5907898.8750105,3.2584229,1.6023855,4.9819946,2.1730003,1.9241028.6479273,3.8912659,1.160182,5.8869934,1.532999,1.8153076.3645802,3.6605835.5597525,5.5119934.5830002,1.2000122,0,2.7546387-.0883331,4.6640015-.2650003,1.9060364-.1762791,3.7887268-.549264,5.6180115-1.1129999,1.710144-.5026999,3.3229065-1.2911634,4.769989-2.3319998,1.2889404-.8847666,2.0459595-2.3589277,2.0140076-3.9219999.0891113-1.4494801-.6229248-2.8313084-1.855011-3.6000004-1.5015564-.8735428-3.1568298-1.4506569-4.8760071-1.7000008-2.2790833-.3803577-4.580719-.6105194-6.8900146-.6889992-2.5793152-.1060009-5.212677-.2649994-7.8999939-.4769993-2.6508789-.2071247-5.288269-.5610008-7.8999939-1.0599995-2.4204407-.4368095-4.7498474-1.2789669-6.8900146-2.4909992-2.0014954-1.1534767-3.678833-2.7943344-4.8760071-4.7700005-1.3358459-2.4115639-1.9779053-5.1459084-1.855011-7.9000015.0125732-2.2443352.5383301-4.4560585,1.5369873-6.4659996,1.1066589-2.2188759,2.723114-4.1440887,4.7170105-5.618,2.4342041-1.7826271,5.1602783-3.1277237,8.0559998-3.9749985,3.7181396-1.089138,7.5803223-1.6063881,11.4540405-1.5340004,3.270813-.042942,6.5377197.2411346,9.7520142.8479996,2.4140625.4779091,4.8021545,1.0786896,7.1549988,1.7999992,2.0139771.6359978,3.7099915,1.2360001,5.0880127,1.7999992,1.0848694.4966011,2.2536011.7842903,3.4450073.8479996.7626953.0738716,1.5239258-.1544991,2.1199951-.6360016l1.2720032.8479996-7.3139954,13.25-1.0599976-.4239998c-.0973511-.8657303-.387085-1.6987267-.8479919-2.4379997-.7520142-1.0174599-1.7089233-1.8660278-2.8089905-2.4910011-1.4567871-.8835869-3.0022278-1.6119041-4.6109924-2.1730003-1.864502-.6623878-3.7784729-1.1763229-5.723999-1.5369987-2.0265503-.3865089-4.0849304-.5816994-6.1480103-.5830002-1.614624.0045662-3.2266846.1285706-4.822998.3709984-1.5357361.2162018-3.0452881.5891495-4.5050049,1.112999-1.230835.4283867-2.3653564,1.0947037-3.3389893,1.9609985-.8622742.7647362-1.3464355,1.8686714-1.3250122,3.0209999-.0921326,1.5089912.6114197,2.9563255,1.855011,3.8159981,1.4854431.9477539,3.1418457,1.5959129,4.8760071,1.9080009,2.2719421.4563179,4.5752258.7397957,6.8900146.8479996,2.5793457.1413345,5.2126465.3180008,7.8999939.5299988,2.6538086.2072868,5.2922058.5789986,7.8999939,1.112999,2.4189758.4703674,4.7457886,1.3294964,6.8900146,2.5440006,1.9911804,1.1438923,3.666748,2.7648315,4.8760071,4.717001,1.3319092,2.3542805,1.9747009,5.0357304,1.855011,7.737999.1390991,3.2555666-.8953247,6.4528646-2.9150085,9.0100002-1.9771118,2.3577957-4.4584961,4.2414765-7.2609863,5.5120001-2.9744568,1.3639097-6.1366272,2.2740307-9.381012,2.7-3.1078491.4413848-6.2420349.6715796-9.381012.689-3.3896179.0487443-6.7775574-.1793443-10.1300659-.6819904-2.3089905-.3558826-4.5800476-.9249831-6.7839966-1.7000001-1.4608154-.5262587-2.8937073-1.1270466-4.2929993-1.8-.8458862-.4727933-1.7884521-.7464006-2.756012-.8-.5696411.0425911-1.0832825.3586788-1.3779907.848l-1.4890137-.8410001,5.8320007-12.8259997Z"/>
    <g id="_グループ_429" data-name="グループ 429">
      <g id="_グループ_430" data-name="グループ 430">
        <path id="_パス_830" data-name="パス 830" class="cls-2" d="M451.6845169,3.780992c-1.8380127.323-1.0100098,1.152-5.2820129,1.152h-38.7890015c-.0691223-.0258377-.141449-.0419906-.2149963-.048h-13.769989c-.4617004-.0013722-.8370972.3718036-.8384705.8335116-.0001526.0491017.0040283.0981206.0124817.1464885.322998,1.8380001,1.1520081,1.01,1.1520081,5.2820001v45.0800033c0,4.2719994-.82901,3.4440002-1.1520081,5.2820015-.0795288.4548073.2247009.8879776.6795044.9675064.0483704.0084572.0973816.0126381.1464844.0124931h13.769989c.4622498.0007133.8375854-.3734436.8382874-.8357048.0000916-.0483627-.0040283-.0966415-.0122986-.1442947-.322998-1.8380013-1.1520081-1.0099983-1.1520081-5.2820015v-11.5530052c0-2.461998,1.7770081-2.7550011,2.3999939-2.7820015h26.572998c4.2720032,0,3.4440002.8289986,5.2820129,1.1520004.4548035.0795364.88797-.224678.9675293-.6794891.0084534-.0483742.0126343-.0974007.0124817-.1465111v-13.7699966c.0007324-.4622612-.3734436-.8375854-.8356934-.8383064-.0483704-.0000763-.0966492.0040417-.1443176.0123062-1.8380127.323-1.0100098,1.1520004-5.2820129,1.1520004h-26.1949768c-2.4620056,0-2.756012-1.7770004-2.7820129-2.3999996v-5.5410004c0-2.4619999,1.7770081-2.7550001,2.3999939-2.7819996h36.9309998c4.2720032,0,3.4440002.8290005,5.2820129,1.1520004.4555664.0784273.8884583-.2273006.9668579-.6828613.0081482-.0472775.012207-.0951662.012146-.1431389V4.606992c.0012817-.4617083-.3719788-.8370365-.8336792-.838319-.0487061-.0001353-.0973206.0039867-.1453247.0123191"/>
        <path id="_パス_831" data-name="パス 831" class="cls-2" d="M60.3775101,48.1699914c-1.8380013.3230019-1.0099983,1.1520004-5.2820015,1.1520004H18.1635094c-.6259995-.0270004-2.3999996-.3199997-2.3999996-2.7820015V11.1469922c0-4.2719998.8290005-3.4450002,1.1520004-5.2820001.0789776-.4554658-.2262268-.8887174-.6816931-.9676948-.0476561-.0082636-.0959396-.0123807-.1443071-.0123053H2.3165085c-.461708-.0013784-.8371137.3717924-.8384922.8335004-.0001466.0491054.0040336.0981281.0124922.1464996.323,1.8369999,1.152,1.01,1.152,5.2820001v45.0800023c0,4.2719994-.829,3.4440002-1.152,5.2820015-.0789785.4549065.2257701.8877029.6806751.9666824.0479903.0083313.0966169.0124512.1453249.0123177h13.7700002c.0734901-.0056877.1458406-.0215034.2150002-.0470009h38.7930002c4.2719994,0,3.4440002.8289986,5.2820015,1.1520004.4554672.0789757.8887177-.2262268.9676933-.681694.0082664-.047657.0123825-.0959396.0123062-.1443062v-13.7710037c.0013771-.4617081-.3717918-.8371124-.8334999-.8384933-.0491066-.000145-.0981293.0040359-.1464996.0124931"/>
        <path id="_パス_832" data-name="パス 832" class="cls-2" d="M202.2435074,56.326993c0,3.402626-2.7583771,6.1609993-6.1609955,6.1609993-3.4026337,0-6.1610107-2.7583733-6.1610107-6.1609993s2.7583771-6.1609993,6.1610107-6.1609993h0c3.4026184.0000038,6.1609955,2.7583733,6.1609955,6.1609993"/>
        <path id="_パス_833" data-name="パス 833" class="cls-2" d="M286.6725006,56.326993c0,3.402626-2.7583618,6.1609993-6.1610107,6.1609993-3.4026184,0-6.1609802-2.7583733-6.1609802-6.1609993,0-3.4026222,2.7583618-6.1609917,6.1609802-6.1609993s6.1610107,2.7583618,6.1610107,6.1609879v.0000114"/>
        <path id="_パス_834" data-name="パス 834" class="cls-2" d="M463.2565041,56.326993c0,3.402626-2.7583618,6.1609993-6.1610107,6.1609993-3.4026184,0-6.1609802-2.7583733-6.1609802-6.1609993,0-3.4026222,2.7583618-6.1609917,6.1609802-6.1609993s6.1610107,2.7583618,6.1610107,6.1609879v.0000114"/>
        <path id="_パス_835" data-name="パス 835" class="cls-2" d="M381.3735008,56.326993c0,3.402626-2.7583618,6.1609993-6.1610107,6.1609993-3.4026184,0-6.1609802-2.7583733-6.1609802-6.1609993,0-3.4026222,2.7583618-6.1609917,6.1609802-6.1609993s6.1610107,2.7583618,6.1610107,6.1609879v.0000114"/>
        <path id="_パス_836" data-name="パス 836" class="cls-2" d="M131.9325094,33.6629921c-.0808716,2.3990784.5409393,4.7695198,1.7890015,6.8199997,1.2350006,2.4370003,2.9559937,3.7109985,5.029007,5.382,2.1708679,1.7263031,4.6512299,3.0224838,7.3079834,3.8190002,2.8435974.8794708,5.8045349,1.3208618,8.7810059,1.3089981,2.4583588-.0142174,4.9083252-.2884102,7.3090057-.8180008,2.3804779-.4961624,4.7155304-1.1895561,6.9810028-2.072998,1.508728-.5106583,2.9264832-1.258358,4.1999969-2.2150002.3849945-.2809982,1.4570007-1.0699997,1.4570007-1.0699997,1.0789948-.980999.7749939-1.3699989,1.7689972-2.2630005.3443146-.308445.8734741-.2793694,1.1819153.0649414.0323334.0360947.0614624.0749245.0870819.1160583l6.6380005,10.6199989c.2459869.3907242.1286469.9068832-.2620697,1.1528702-.0415955.0261803-.0854034.048645-.1309357.067131-1.3820038.5600014-1.4920044-.0579987-3.3289948.8279991l-1.0859985.6230011c-1.6379852.8720016-3.7100067,1.8533325-6.2160034,2.9440002-2.7722473,1.1781082-5.6365356,2.1266251-8.5639954,2.8359985-3.2830658.8103905-6.6534271,1.2134209-10.0350037,1.2000008-4.4585724.0165367-8.89888-.5704575-13.1999969-1.7449989-4.0357819-1.0744934-7.8302612-2.9070816-11.1809998-5.4000015-3.2196503-2.4152412-5.8490601-5.5298271-7.6900024-9.1090012-1.9658203-3.9612312-2.9391022-8.341011-2.8359985-12.762001-.0850067-5.7000008,2.8359985-13.0900002,2.8359985-13.0900002,1.8409424-3.5791721,4.4703522-6.693759,7.6900024-9.1090002,3.3507385-2.4929185,7.1452179-4.3255076,11.1809998-5.4000001,4.3011169-1.1745422,8.7414246-1.7615365,13.1999969-1.745,3.3815765-.0134115,6.7519379.3896207,10.0350037,1.1999999,2.9275208.7100277,5.7918091,1.6592188,8.5639954,2.8380046,2.5059967,1.0906663,4.5783386,2.0723338,6.2169952,2.9450002l1.0859985.6229997c1.8370056.8859997,1.9470062.2679996,3.3289948.8280001.4277954.1736746.6338043.6612673.4601288,1.0890675-.0184784.0455322-.0409393.0893459-.0671234.1309328l-6.6380005,10.6199999c-.244339.3924046-.7605286.5124302-1.1529388.2680836-.0411377-.0256138-.0799713-.0547504-.1160583-.0870838-.9929962-.8939991-.6889954-1.2830009-1.7689972-2.2630005,0,0-1.0720062-.7889996-1.4570007-1.0699997-1.2737122-.9563255-2.6914215-1.7039967-4.1999969-2.2150002-2.3974915-.8820848-4.8603516-1.5752001-7.3659973-2.073-2.4003448-.5295639-4.8499756-.8037567-7.3079987-.8179998-3.0397491-.0118217-6.0642853.4293556-8.973999,1.309-2.656311.7966375-5.1365356,2.0920668-7.3079987,3.8170004-2.072998,1.6720009-3.6000061,2.9459991-4.8370056,5.382-1.059845,1.9925957-1.5445709,4.2407112-1.3999939,6.493"/>
        <path id="_パス_837" data-name="パス 837" class="cls-2" d="M241.7724934,4.647992c4.0092773.0208935,7.9940186.6272944,11.8280029,1.8,3.940918,1.1645133,7.6551514,2.9905276,10.9840088,5.3999996,3.3294983,2.4216681,6.1025391,5.5274734,8.1329956,9.1089993,2.1916199,3.9878197,3.2848816,8.4861317,3.1679993,13.0349998.1169739,4.5488777-.9762878,9.0472145-3.1679993,13.0349998-2.0299683,3.5818901-4.8030701,6.6877937-8.1329956,9.1090012-3.3114319,2.400486-7.0340271,4.1750221-10.9840088,5.2360001-7.7354736,2.1815948-15.9235382,2.1815948-23.6589966,0-3.9499054-1.0611496-7.6724701-2.8356705-10.9839935-5.2360001-3.3295288-2.4216461-6.1025543-5.5274582-8.1329956-9.1090012-2.1908875-3.988102-3.2841034-8.4862137-3.1679993-13.0349998-.1160126-4.5487766.9772034-9.0468655,3.1679993-13.0349998,2.0309448-3.5811825,4.8038788-6.6868944,8.1329956-9.1090002,3.3289337-2.4093204,7.0431519-4.2353222,10.9839935-5.4000001,3.8346558-1.1727846,7.8200531-1.7791845,11.8299866-1.8M241.7714863,16.2479912c-2.7195129.0065708-5.4237061.4077511-8.0279999,1.191-2.57901.748188-5.0215912,1.9044905-7.2350006,3.4249992-2.1103821,1.4478836-3.89151,3.3247643-5.227005,5.5079994-1.3551331,2.2431049-2.0507202,4.8226929-2.0070038,7.4429989-.0438538,2.6206398.6517334,5.2005844,2.0070038,7.4440002,1.3359985,2.1828499,3.1170349,4.0596352,5.227005,5.5079994,2.2136536,1.5198288,4.656189,2.675766,7.2350006,3.4239998,5.2337799,1.5886459,10.8212433,1.5886459,16.0550079,0,2.5781555-.7491837,5.0202026-1.905056,7.2340088-3.4239998,2.1091919-1.449604,3.8903198-3.3261261,5.2279968-5.5079994,1.3540955-2.2439079,2.0495911-4.8235168,2.0069885-7.4440002.0424194-2.6201439-.6530457-5.1993809-2.0069885-7.4430008-1.3372192-2.1822376-3.1184387-4.0588493-5.2279968-5.5079994-2.213562-1.5196238-4.6556702-2.6758604-7.2340088-3.4250002-2.6043701-.7829714-5.3085022-1.184145-8.0279846-1.191"/>
        <path id="_パス_838" data-name="パス 838" class="cls-2" d="M305.8165035,58.9299934c-3.8580017-1.6199989-3.6870117-.5-5.4630127-1.0690002-.4397278-.1425819-.680603-.6146317-.5380249-1.0543556.0148315-.045742.0335693-.0901222.0560303-.1326447l5.9260254-11.2290001c.214447-.4095154.7202454-.5676537,1.1297607-.3532181.0429382.0224838.0838318.0486565.1222534.0782166,1.4760132,1.1419983.3569946,1.4900017,4.1369934,3.480999l.5169983.2589989c1.8347473.7741928,3.7301636,1.3959618,5.6669922,1.8590012,2.2807312.662735,4.6001282,1.184391,6.9450073,1.5620003,2.149292.3715096,4.3249512.5698128,6.506012.5929985,1.4180298,0,3.2533569-.0896683,5.506012-.269001,2.2402954-.1759567,4.460022-.5545044,6.6319885-1.1310005,1.9870911-.497097,3.8859558-1.2967758,5.6300049-2.3709984,1.5840149-1.0050011,2.3779907-1.9550018,2.3779907-3.6080017s-.7309875-2.493-2.1900024-3.2840004c-1.8069153-.8964958-3.7528687-1.4797783-5.7550049-1.7249985-2.6959229-.3868065-5.4116211-.6205139-8.1340027-.7000008-3.0460205-.1079979-6.1529846-.2696648-9.3210144-.4850006-3.1679993-.2153358-6.2746887-.5743332-9.3200073-1.0769997-2.8225098-.4324913-5.5640564-1.2863426-8.1329956-2.5330009-2.2922974-1.1125965-4.270752-2.7796192-5.756012-4.8500004-1.555542-2.3797207-2.3218079-5.1890335-2.1900024-8.0290012.0197754-2.4335537.6427002-4.8242264,1.8129883-6.9580002,1.3435669-2.4981451,3.2502136-4.6492405,5.5690002-6.283,2.9367371-1.8402629,6.1460571-3.2044499,9.5090027-4.0419998,4.4159546-1.1116416,8.9588623-1.6381469,13.5120239-1.565993,3.8546448-.0439415,7.7058716.2444579,11.5109863.862,3.2529907.576,6.052002,1.2459999,8.4450073,1.8319999,2.5455933.6956971,5.0274963,1.6063032,7.4190063,2.7220001,3.7000122,1.9580002,3.6270142.8270001,5.3450012,1.5539999.4248657.1807289.6227722.6716628.4420471,1.0965309-.019165.0450974-.0422974.0884209-.0690613.1294689l-7.3429871,11.2889986c-.2503662.3885899-.7683411.5006409-1.1569214.2502708-.0404968-.0260868-.0786743-.0556202-.1140747-.0882702-1.3680115-1.2700005-.2219849-1.5170002-3.8080139-3.8379993l-.8399963-.4619999c-1.741272-.9056807-3.5639954-1.6452827-5.4440002-2.2089996-2.213562-.6763096-4.471283-1.1985579-6.7569885-1.5629997-4.282135-.709671-8.6456604-.7821217-12.9490051-.2150002-1.8027649.2182245-3.5824585.5967226-5.3179932,1.1310005-1.4150391.4425869-2.7470398,1.1163607-3.9419861,1.9939995-.9204407.5969181-1.5013123,1.5967426-1.5639954,2.6919994.0180359,1.4841328.8624268,2.8342552,2.1889954,3.5,1.7876282.9847469,3.7369995,1.6417618,5.756012,1.9400005,2.6892395.4649105,5.4060669.752861,8.1329956.8619995,3.0440063.1439991,6.151001.3236656,9.3210144.5389996,3.125061.2099285,6.2365417.5878086,9.3210144,1.132,2.8216858.4651089,5.5615234,1.3347263,8.1349487,2.5820007,2.2811279,1.1070824,4.2571106,2.7548866,5.756012,4.7999992,1.5492249,2.3221283,2.3161621,5.0784187,2.1889954,7.8670006.1305542,3.5647888-1.0996094,7.0457916-3.4410095,9.7369995-2.4040527,2.5751648-5.3243103,4.6142273-8.5700073,5.9840012-3.5455627,1.462925-7.2687073,2.4514618-11.072998,2.9399986-3.6742249.4485931-7.371521.6823235-11.072998.7000008-3.9944763.047123-7.9873352-.1867867-11.9490051-.7000008-2.7343445-.5189705-5.4150085-1.2888947-8.0079956-2.2999992,0,0-4.8640137-1.6689987-5.2999878-1.8470001"/>
        <path id="_パス_839" data-name="パス 839" class="cls-2" d="M108.1175084,4.012992h3.6539993l-33.9440002,59.3109986h-3.4329987L108.1175084,4.012992Z"/>
      </g>
    </g>
  </g>
</svg>