<?xml version="1.0" encoding="utf-8"?>
<!-- Generator: Adobe Illustrator 28.3.0, SVG Export Plug-In . SVG Version: 6.00 Build 0)  -->
<svg version="1.1" id="レイヤー_1" xmlns="http://www.w3.org/2000/svg" xmlns:xlink="http://www.w3.org/1999/xlink" x="0px"
	 y="0px" width="640px" height="130px" viewBox="0 0 640 130" style="enable-background:new 0 0 640 130;" xml:space="preserve">
<style type="text/css">
	.st0{fill:#FFFFFF;}
</style>
<g>
	<g id="グループ_142">
		<path id="パス_784" class="st0" d="M3.923485,115.8499985c0.0203822-0.1472626-0.0620759-0.289505-0.2-0.3450012
			c-0.1507502-0.0543747-0.3081908-0.0880203-0.4679999-0.0999985v-0.3000031h4.6170001v0.3000031
			c-0.1563916,0.0108948-0.3103514,0.0445786-0.4569998,0.0999985c-0.1312957,0.0613098-0.2065854,0.2017136-0.1849999,0.3450012
			v7.5999985h6.7640004c0.109457-0.0031509,0.2148523-0.0421448,0.3000002-0.1110001
			c0.1000004-0.0739975,0.1479998-0.2429962,0.1479998-0.5070038h0.3000002v3.6790009h-0.3000002
			c0-0.2639999-0.0489998-0.4199982-0.1479998-0.4690018c-0.0924988-0.0486832-0.1954718-0.0740814-0.3000002-0.0739975H3.2574852
			v-0.3000031c0.159631-0.0132065,0.3169117-0.046814,0.4680002-0.0999985
			c0.1379242-0.0554962,0.2203822-0.1977386,0.1999998-0.3450012L3.923485,115.8499985z"/>
		<path id="パス_785" class="st0" d="M22.0904846,115.4059982c-0.1969242,0.0073624-0.3919811,0.0409927-0.5799999,0.0999985
			c-0.1421337,0.0516586-0.2293968,0.1950226-0.2099991,0.3450012v9.3799973
			c-0.0193977,0.1499786,0.0678654,0.2933426,0.2099991,0.3450012c0.1883125,0.057785,0.3832092,0.0913925,0.5799999,0.0999985
			v0.3000031h-4.8880005v-0.3000031c0.196804-0.0084991,0.3917141-0.0421066,0.5799999-0.0999985
			c0.1421337-0.0516586,0.2293987-0.1950226,0.210001-0.3450012v-9.3799973
			c0.0193977-0.1499786-0.0678673-0.2933426-0.210001-0.3450012c-0.1879807-0.0591583-0.3830605-0.0927963-0.5799999-0.0999985
			v-0.3000031h4.8880005V115.4059982z"/>
		<path id="パス_786" class="st0" d="M25.249485,115.8499985c0.0203819-0.1472626-0.0620766-0.289505-0.2000008-0.3450012
			c-0.1750641-0.05867-0.3575287-0.0923309-0.5419998-0.0999985v-0.3000031h10.7390022
			c0.1079102-0.0016403,0.2126808-0.0365677,0.2999992-0.0999985c0.0999985-0.0650024,0.1479988-0.2139969,0.1479988-0.4440002
			h0.2999992v3.4120026h-0.2999992c0-0.2470016-0.0489998-0.4059982-0.1479988-0.4810028
			c-0.0846748-0.069809-0.1902924-0.1092377-0.2999992-0.1119995h-6.6900024v2.3000031h4.5170021
			c0.1078758-0.0018387,0.2125931-0.0367432,0.2999992-0.0999985c0.0999985-0.064003,0.1479988-0.2129974,0.1479988-0.4440002
			h0.2999992v3.3079987h-0.2999992c0.0250969-0.1744003-0.0292053-0.3508759-0.1479988-0.4810028
			c-0.0848846-0.069313-0.1904411-0.1083755-0.2999992-0.1110001h-4.5170021v3.3810043
			c-0.0203819,0.1472626,0.0620766,0.289505,0.2000008,0.3450012c0.1592484,0.0547791,0.3249969,0.0883942,0.493,0.0999985
			v0.3000031h-4.6910019v-0.3000031c0.1680031-0.0116043,0.3337555-0.0452194,0.493-0.0999985
			c0.1379242-0.0554962,0.2203827-0.1977386,0.2000008-0.3450012L25.249485,115.8499985z"/>
		<path id="パス_787" class="st0" d="M48.9944839,123.7979965c0.3293304,0,0.543335-0.2053299,0.6419983-0.6159973h0.3000031
			v3.2330017h-0.2480011c-0.0820007-0.2310028-0.1689987-0.3619995-0.2590027-0.4000015
			c-0.1403656-0.0397797-0.2862854-0.0563278-0.4319992-0.0490036H37.9864845v-0.3000031
			c0.1638489-0.0133362,0.3254128-0.0469284,0.480999-0.0999985c0.14254-0.0517426,0.2298965-0.1956711,0.2099991-0.3460007
			v-9.3699951c0.0198975-0.1503296-0.0674591-0.2942581-0.2099991-0.3460007
			c-0.1555862-0.0530701-0.3171501-0.0866623-0.480999-0.0999985v-0.3000031H49.192482
			c0.1077576-0.0025253,0.2122803-0.0373688,0.3000031-0.0999985c0.0999985-0.0670013,0.1469955-0.2139969,0.1469955-0.4440002
			h0.3000031v3.3079987h-0.3000031c0.025528-0.1745682-0.0283966-0.3513947-0.1469955-0.4820023
			c-0.0851517-0.0688553-0.1905441-0.1078491-0.3000031-0.1110001h-7.2080002v2h4.6409988
			c0.1096649-0.0029907,0.21521-0.0423889,0.3000031-0.1119995c0.1172943-0.1212845,0.1719208-0.2899857,0.147995-0.4570007
			h0.3000031v3.2089996h-0.3000031c0.023468-0.1669769-0.0310974-0.3354797-0.147995-0.4570007
			c-0.0848465-0.0693817-0.1904297-0.1084442-0.3000031-0.1110001h-4.6409988v2.4430008L48.9944839,123.7979965z"/>
		<path id="パス_788" class="st0" d="M63.6804848,115.4059982c-0.1969223,0.0073624-0.391983,0.0409927-0.5800018,0.0999985
			c-0.1421356,0.0516586-0.2293968,0.1950226-0.2099991,0.3450012v9.3799973
			c-0.0193977,0.1499786,0.0678635,0.2933426,0.2099991,0.3450012c0.1883125,0.057785,0.3832092,0.0913925,0.5800018,0.0999985
			v0.3000031h-4.8880005v-0.3000031c0.196804-0.0084991,0.391716-0.0421066,0.5800018-0.0999985
			c0.1421356-0.0516586,0.2293968-0.1950226,0.2099991-0.3450012v-9.3799973
			c0.0193977-0.1499786-0.0678635-0.2933426-0.2099991-0.3450012c-0.1879807-0.0591583-0.3830605-0.0927963-0.5800018-0.0999985
			v-0.3000031h4.8880005V115.4059982z"/>
		<path id="パス_789" class="st0" d="M67.3584824,122.3420029c-0.0003586,0.0373611-0.0047226,0.0745697-0.0130005,0.1110001
			c-0.0096817,0.0531006-0.0140381,0.1070328-0.0130005,0.1610031c0,0.1646729,0.1563339,0.3206635,0.4690018,0.4680023
			c0.386055,0.1740112,0.7878876,0.3106308,1.2000046,0.4079971c0.5201569,0.1316605,1.0477829,0.231842,1.5800018,0.3000031
			c0.5279541,0.0723724,1.060112,0.109787,1.5929947,0.1119995c0.1470032,0,0.348999-0.0090027,0.5999985-0.0250015
			c0.255043-0.0164261,0.5073624-0.0620575,0.7519989-0.1360016c0.2301712-0.0662537,0.4449615-0.1773911,0.6320038-0.3270035
			c0.1733398-0.1413879,0.2694244-0.3565521,0.2589951-0.5800018c0-0.3280029-0.1999969-0.564003-0.5929947-0.6999969
			c-0.4849319-0.1594391-0.9853897-0.2670441-1.4930038-0.3209991c-0.5999985-0.0739975-1.25-0.1520004-1.9499969-0.2340012
			c-0.6635208-0.0747375-1.3172073-0.2198868-1.9500046-0.4329987c-0.5580978-0.1799927-1.0684204-0.4835205-1.4929962-0.8880005
			c-0.4129868-0.43367-0.6277008-1.0191498-0.5930023-1.6169968c0.0118256-0.4240494,0.1141052-0.840683,0.3000031-1.2220001
			c0.2185516-0.4651031,0.538765-0.8751907,0.9369965-1.1999969c0.5032501-0.4018555,1.0765915-0.7070084,1.6910019-0.9000015
			c0.8267441-0.2564468,1.6896286-0.3770142,2.5550003-0.3570023c0.5651703-0.0009613,1.1298828,0.0324326,1.6910019,0.0999985
			c0.534996,0.0670013,1.0199966,0.1399994,1.4560013,0.2229996c0.435997,0.0830002,0.8059998,0.1559982,1.1110001,0.2210007
			c0.2143478,0.0539093,0.4333267,0.0873871,0.6539993,0.0999985c0.1171646,0.0047989,0.2318192-0.0348511,0.3209991-0.1110001
			c0.0820007-0.0739975,0.1559982-0.1360016,0.2229996-0.185997l0.2719955,0.0999985l-1.4860001,3.1049957l-0.3209991-0.1480026
			c0.0007706-0.0412979,0.0051193-0.0824509,0.0130005-0.1230011c0.008728-0.048851,0.0130768-0.098381,0.0130005-0.1480026
			c0-0.0650024-0.0999985-0.1470032-0.2999954-0.2470016c-0.2513657-0.1203613-0.5118408-0.2206726-0.7789993-0.3000031
			c-0.3564377-0.1081924-0.719101-0.1946869-1.0859985-0.2590027c-0.4113998-0.0751572-0.8287964-0.1126404-1.2470016-0.1119995
			c-0.1470032,0-0.3769989,0.0049973-0.6910019,0.0130005c-0.3157272,0.0087738-0.6297073,0.0499878-0.9370041,0.1230011
			c-0.2903976,0.0653305-0.5694504,0.1735153-0.8279953,0.3209991c-0.2288284,0.1253204-0.3670731,0.3692932-0.3570023,0.6299973
			c0,0.2953339,0.1976624,0.5049973,0.5930023,0.6289978c0.4880676,0.1429291,0.9876022,0.2433014,1.4929962,0.3000031
			c0.5999985,0.072998,1.2490005,0.1559982,1.9500046,0.2450027c0.6640091,0.0834274,1.3173218,0.2369537,1.9489975,0.4580002
			c0.5619965,0.1898041,1.0728226,0.5062943,1.4930038,0.9250031c0.4165573,0.4612656,0.6302338,1.0706024,0.5929947,1.6910019
			c0.0004044,0.4753494-0.1094742,0.9443054-0.3209991,1.3700027c-0.230835,0.456604-0.5692139,0.8502426-0.9860001,1.1470032
			c-0.5096893,0.3588104-1.0843887,0.6149139-1.6920013,0.7539978c-0.7967072,0.1853027-1.6131287,0.2722855-2.4309998,0.2590027
			c-0.6017151-0.0008621-1.2028198-0.0382614-1.7999954-0.1119995c-0.6086731-0.0740051-1.1679993-0.1643372-1.6780014-0.2710037
			s-0.9340057-0.206665-1.2720032-0.3000031c-0.1903076-0.057373-0.3840179-0.1027908-0.5800018-0.1360016
			c-0.1125031-0.0002365-0.2215118,0.0390472-0.3079987,0.1110001c-0.0909958,0.0739975-0.1759949,0.1520004-0.2589951,0.2350006
			l-0.2720032-0.0739975l1.0130005-3.3079987L67.3584824,122.3420029z"/>
		<path id="パス_790" class="st0" d="M96.1624908,119.2809982l-0.3460007-0.1719971
			c0.0171127-0.0677109,0.0378113-0.1344757,0.0619965-0.1999969c0.0262985-0.0713577,0.0391846-0.1469574,0.038002-0.2229996
			c0-0.0999985-0.0999985-0.2139969-0.3079987-0.3460007c-0.2481003-0.1501846-0.5133286-0.2700424-0.7900009-0.3570023
			c-0.3562851-0.1162109-0.7192841-0.2107162-1.086998-0.2829971c-0.4020233-0.0831223-0.8114777-0.1250076-1.2220001-0.125
			c-0.4742584,0.0017319-0.9466095,0.0601425-1.4069977,0.1740036c-0.4538651,0.1065216-0.8872528,0.2865601-1.2829971,0.5329971
			c-0.3747101,0.2353363-0.6948471,0.5479736-0.939003,0.9169998c-0.2556686,0.4031982-0.384552,0.8737946-0.3700027,1.3509979
			c-0.010704,0.4729691,0.1179733,0.9386292,0.3700027,1.3389969c0.2417221,0.3739929,0.5621872,0.6907043,0.939003,0.9280014
			c0.3954773,0.2469482,0.828949,0.4270325,1.2829971,0.5329971c0.4603882,0.1138611,0.9327393,0.1722717,1.4069977,0.1740036
			c0.4729843,0.0034637,0.9441528-0.0587997,1.4000015-0.1849976c0.4000473-0.1103439,0.7885132-0.2590332,1.1600037-0.4440002
			c0.2846909-0.1384811,0.5502319-0.3132706,0.7900009-0.5199966c0.189003-0.1719971,0.2829971-0.3000031,0.2829971-0.3820038
			v-0.2229996c0.0029755-0.0744476-0.0051117-0.1489258-0.0240021-0.2210007l0.2720032-0.1719971l2.3450012,3.3690033
			l-0.3000031,0.1709976c-0.1480026-0.1790009-0.2789993-0.2689972-0.4000015-0.2689972
			c-0.1868515,0.0468445-0.3657684,0.1209717-0.5309982,0.2200012c-0.288002,0.1473312-0.6703339,0.3139954-1.1470032,0.5
			c-0.5486069,0.2082291-1.1144485,0.367836-1.6910019,0.4769974c-0.7116318,0.137825-1.4351654,0.2048187-2.1600037,0.1999969
			c-0.8913574,0.001236-1.7804413-0.08992-2.6529999-0.2720032c-0.8196335-0.1633835-1.6018677-0.477356-2.3069992-0.9260025
			c-0.6721725-0.4333649-1.2307587-1.0214386-1.6289978-1.7149963c-1.3663864-2.3648376-0.6520462-5.3848953,1.6289978-6.887001
			c0.706131-0.457283,1.4869461-0.7872696,2.3069992-0.9749985c0.8691864-0.2063828,1.7596436-0.3097534,2.6529999-0.3079987
			c0.5296402-0.0010986,1.058342,0.0444107,1.5800018,0.1360016c0.5093384,0.0906754,0.9783325,0.1850052,1.4069977,0.2829971
			c0.4286652,0.0979996,0.798996,0.1926651,1.1110001,0.2839966c0.2160034,0.072197,0.4399796,0.1178665,0.6669998,0.1360016
			c0.0804367,0.0004349,0.158783-0.0255585,0.2229996-0.0739975c0.0569077-0.0407944,0.1065979-0.0908203,0.1470032-0.1480026
			l0.3000031,0.0999985L96.1624908,119.2809982z"/>
		<path id="パス_791" class="st0" d="M101.567482,115.8499985c0.0203857-0.1472626-0.0620728-0.289505-0.1999969-0.3450012
			c-0.1507492-0.0543747-0.3081894-0.0880203-0.4680023-0.0999985v-0.3000031h4.6149979v0.3000031
			c-0.156395,0.0108948-0.3103485,0.0445786-0.4570007,0.0999985c-0.1312943,0.0613098-0.2065811,0.2017136-0.1849976,0.3450012
			v7.5999985h6.7639999c0.1094589-0.0031509,0.2148514-0.0421448,0.3000031-0.1110001
			c0.0999985-0.0739975,0.1480026-0.2429962,0.1480026-0.5070038h0.3000031v3.6790009h-0.3000031
			c0-0.2639999-0.0490036-0.4199982-0.1480026-0.4690018c-0.0924988-0.0486832-0.1954727-0.0740814-0.3000031-0.0739975h-10.7350006
			v-0.3000031c0.1596298-0.0132065,0.3169098-0.046814,0.4680023-0.0999985
			c0.1379242-0.0554962,0.2203827-0.1977386,0.1999969-0.3450012L101.567482,115.8499985z"/>
		<path id="パス_792" class="st0" d="M124.3754883,125.6729965c0.067276-0.0016785,0.1342392-0.0097122,0.1999969-0.0240021
			c0.0820007-0.0159988,0.1230011-0.0830002,0.1230011-0.1999969c-0.0108032-0.1069565-0.0402451-0.2111969-0.086998-0.3079987
			c-0.0579987-0.1399994-0.1230011-0.2919998-0.1999969-0.4570007s-0.1520004-0.3300018-0.2340012-0.4940033
			s-0.1480026-0.3000031-0.1999969-0.4189987h-5.7240067c-0.0437698,0.1431351-0.097229,0.2831192-0.1600037,0.4189987
			c-0.0739975,0.1650009-0.1520004,0.3300018-0.2350006,0.4940033s-0.1559982,0.3170013-0.2210007,0.4570007
			c-0.0533981,0.0950317-0.0873947,0.1997223-0.0999985,0.3079987c0,0.1139984,0.0419998,0.1809998,0.1230011,0.1999969
			c0.0657501,0.0143585,0.1327209,0.0223923,0.1999969,0.0240021v0.3000031h-3.6999969v-0.3000031
			c0.1031799-0.0000076,0.2052689-0.0211029,0.3000031-0.0619965c0.089859-0.0305481,0.1625519-0.0977859,0.1999969-0.1849976
			c0.4933319-1.1513367,0.9953308-2.2906647,1.5059967-3.4179993s0.9673386-2.1476593,1.3700027-3.060997
			c0.4000015-0.9133377,0.7333298-1.6703339,1-2.2709961c0.1657791-0.3277588,0.2997284-0.6706619,0.4000015-1.0240021
			c0-0.1480026-0.1070023-0.2300034-0.3209991-0.2470016v-0.3000031h5.1579971v0.3000031
			c-0.2139969,0.0159988-0.3209991,0.0999985-0.3209991,0.2470016c0.0661774,0.2254562,0.1528702,0.4443665,0.2590027,0.6539993
			c0.1740036,0.3860016,0.4000015,0.8720016,0.6790009,1.4560013l0.9250031,1.9369965
			c0.3373337,0.7080002,0.6749954,1.4159927,1.0130005,2.1240005c0.3380051,0.7080002,0.6546707,1.3786621,0.9499969,2.012001
			c0.296669,0.6326675,0.5353317,1.1633377,0.7160034,1.5920029c0.0374451,0.0872116,0.1101379,0.1544495,0.1999969,0.1849976
			c0.0947571,0.0408173,0.1968231,0.0619049,0.3000031,0.0619965v0.3000031h-4.0999985L124.3754883,125.6729965z
			 M121.0674896,117.6729965l-2.0240021,4.3190002h4.0999985L121.0674896,117.6729965z"/>
		<path id="パス_793" class="st0" d="M131.6564789,122.3420029c-0.0003662,0.0373611-0.004715,0.0745697-0.0130005,0.1110001
			c-0.0096893,0.0531006-0.0140381,0.1070328-0.0130005,0.1610031c0,0.1646729,0.1563416,0.3206635,0.4690094,0.4680023
			c0.3860474,0.1740112,0.7878876,0.3106308,1.1999969,0.4079971c0.5201569,0.1316681,1.0477753,0.2318497,1.5800018,0.3000031
			c0.5279541,0.0723724,1.0601044,0.109787,1.5930023,0.1119995c0.1470032,0,0.3479919-0.0090027,0.5999908-0.0250015
			c0.2550507-0.0164261,0.50737-0.0620575,0.7519989-0.1360016c0.2290039-0.0646896,0.4430542-0.1737595,0.6300049-0.3209991
			c0.1733398-0.1413879,0.2694244-0.3565521,0.2590027-0.5800018c0-0.3280029-0.1999969-0.564003-0.5930023-0.6999969
			c-0.4849396-0.1594391-0.9853973-0.2670441-1.4929962-0.3209991c-0.6000061-0.0740051-1.25-0.1519928-1.9499969-0.2340012
			c-0.6635284-0.0747299-1.3171997-0.2198868-1.9499969-0.4329987c-0.5581055-0.1799927-1.0684204-0.4835205-1.4929962-0.8880005
			c-0.4129944-0.43367-0.6277008-1.0191498-0.5930023-1.6169968c0.0118256-0.4240494,0.1141052-0.840683,0.3000031-1.2220001
			c0.2185822-0.4650879,0.5387878-0.8751678,0.9369965-1.1999969c0.5032501-0.4018555,1.0765839-0.7070084,1.6909943-0.9000015
			c0.8267517-0.2564468,1.6896362-0.3770142,2.5550079-0.3570023c0.5651703-0.0009613,1.1298828,0.0324326,1.6909943,0.0999985
			c0.5350037,0.0670013,1.0200043,0.1399994,1.4560089,0.2229996s0.8059998,0.1559982,1.1109924,0.2210007
			c0.2143555,0.0539093,0.4333344,0.0873871,0.654007,0.0999985c0.1171722,0.0048981,0.2318726-0.0347595,0.3209991-0.1110001
			c0.0820007-0.0739975,0.1559906-0.1360016,0.2229919-0.185997l0.2720032,0.0999985l-1.4819946,3.1100006l-0.3209991-0.1480026
			c0.0007629-0.0412979,0.0051117-0.0824509,0.0130005-0.1230011c0.008728-0.048851,0.0130768-0.098381,0.0130005-0.1480026
			c0-0.0650024-0.1000061-0.1470032-0.3000031-0.2470016c-0.251358-0.1203613-0.5118408-0.2206802-0.779007-0.3000031
			c-0.3564301-0.1081924-0.719101-0.1946869-1.0859985-0.2590027c-0.4113922-0.0751572-0.8287964-0.1126404-1.246994-0.1119995
			c-0.1470032,0-0.3769989,0.0049973-0.6910095,0.0130005c-0.3157196,0.0087814-0.6296997,0.0499954-0.9369965,0.1230011
			c-0.29039,0.0653305-0.569458,0.1735153-0.8280029,0.3209991c-0.2288208,0.1253204-0.3670807,0.3692932-0.3569946,0.6299973
			c0,0.2953415,0.1976624,0.5049973,0.5930023,0.6289978c0.4880676,0.1429291,0.9875946,0.2433014,1.4929962,0.3000031
			c0.5999908,0.072998,1.2489929,0.1559982,1.9499969,0.2450027c0.6640167,0.0834274,1.3173218,0.2369537,1.9489899,0.4580002
			c0.5619965,0.1898041,1.0728302,0.5062943,1.4930115,0.9250031c0.4166565,0.4612045,0.6303558,1.0705872,0.5930023,1.6910019
			c0.0004272,0.4753494-0.1094513,0.9443207-0.3209991,1.3700027c-0.230835,0.456604-0.5692291,0.8502426-0.9860077,1.1470032
			c-0.5096893,0.3588104-1.0843964,0.6149139-1.6920013,0.7539978c-0.7967072,0.1852951-1.6131287,0.2722778-2.4309998,0.2590027
			c-0.6017151-0.0008621-1.2028198-0.0382614-1.8000031-0.1119995c-0.6086731-0.0740051-1.1679993-0.1643372-1.6779938-0.2710037
			c-0.5099945-0.1066742-0.9340057-0.206665-1.2720032-0.3000031c-0.1903076-0.057373-0.3840332-0.1027985-0.5800018-0.1360016
			c-0.1125031-0.0002365-0.2215118,0.0390472-0.3079987,0.1110001c-0.0910034,0.0739975-0.1760101,0.1520004-0.2590027,0.2350006
			l-0.2720032-0.0739975l1.0130005-3.3079987L131.6564789,122.3420029z"/>
		<path id="パス_794" class="st0" d="M145.3794861,122.3420029c-0.0003662,0.0373535-0.0047302,0.0745697-0.0130005,0.1110001
			c-0.0096893,0.0531006-0.0140381,0.1070328-0.0130005,0.1610031c0,0.1646729,0.1563263,0.3206635,0.4690094,0.4680023
			c0.3860474,0.1740112,0.7878876,0.3106308,1.1999969,0.4079971c0.5201569,0.1316681,1.0477753,0.2318497,1.5800018,0.3000031
			c0.5279541,0.0723724,1.0601044,0.109787,1.5930023,0.1119995c0.1470032,0,0.348999-0.0090027,0.5999908-0.0250015
			c0.2550507-0.0164261,0.50737-0.0620575,0.7519989-0.1360016c0.2290039-0.0646896,0.4430542-0.1737595,0.6300049-0.3209991
			c0.1733398-0.1413879,0.2694244-0.3565521,0.2590027-0.5800018c0-0.3280029-0.1999969-0.564003-0.5930023-0.6999969
			c-0.4849396-0.1594391-0.9853973-0.2670441-1.4929962-0.3209991c-0.6000061-0.0740051-1.25-0.1519928-1.9499969-0.2340012
			c-0.6635284-0.0747375-1.3171997-0.2198868-1.9499969-0.4329987c-0.5581055-0.1799927-1.0684204-0.4835205-1.4929962-0.8880005
			c-0.4129944-0.43367-0.6277008-1.0191498-0.5930023-1.6169968c0.0118256-0.4240494,0.1141052-0.840683,0.3000031-1.2220001
			c0.2185516-0.4651031,0.5387573-0.8751907,0.9369965-1.1999969c0.5032501-0.4018555,1.0765839-0.7070084,1.6909943-0.9000015
			c0.8267517-0.2564468,1.6896362-0.3770142,2.5550079-0.3570023c0.5651703-0.0009613,1.1298828,0.0324326,1.6909943,0.0999985
			c0.5350037,0.0670013,1.0200043,0.1399994,1.4560089,0.2229996s0.8059998,0.1559982,1.1109924,0.2210007
			c0.2143555,0.0539093,0.4333344,0.0873871,0.654007,0.0999985c0.1171722,0.0048981,0.2318726-0.0347595,0.3209991-0.1110001
			c0.0820007-0.0739975,0.1559906-0.1360016,0.2229919-0.185997l0.2720032,0.0999985l-1.4819946,3.1100006l-0.3209991-0.1480026
			c0.0007629-0.0412979,0.0051117-0.0824509,0.0130005-0.1230011c0.0087128-0.048851,0.0130768-0.098381,0.0130005-0.1480026
			c0-0.0650024-0.1000061-0.1470032-0.3000031-0.2470016c-0.251358-0.1203613-0.5118408-0.2206726-0.779007-0.3000031
			c-0.3564301-0.1082001-0.719101-0.1946945-1.0859985-0.2590027c-0.4113922-0.0751572-0.8287964-0.1126404-1.246994-0.1119995
			c-0.1470032,0-0.3769989,0.0049973-0.6910095,0.0130005c-0.3157196,0.0087738-0.6296997,0.0499878-0.9369965,0.1230011
			c-0.29039,0.0653305-0.569458,0.1735153-0.8280029,0.3209991c-0.2288208,0.1253204-0.3670807,0.3692932-0.3569946,0.6299973
			c0,0.2953415,0.1976624,0.5049973,0.5930023,0.6289978c0.4880676,0.1429291,0.9875946,0.2433014,1.4929962,0.3000031
			c0.5999908,0.072998,1.2489929,0.1559982,1.9499969,0.2450027c0.6640167,0.0834274,1.3173218,0.2369537,1.9489899,0.4580002
			c0.5619965,0.1898041,1.0728302,0.5062943,1.4930115,0.9250031c0.4166565,0.4612045,0.6303558,1.0705872,0.5930023,1.6910019
			c0.0004272,0.4753494-0.1094513,0.9443207-0.3209991,1.3700027c-0.230835,0.456604-0.5692291,0.8502426-0.9860077,1.1470032
			c-0.5096893,0.3588104-1.0843964,0.6149139-1.6920013,0.7539978c-0.7967072,0.1852951-1.6131287,0.2722778-2.4309998,0.2590027
			c-0.6017151-0.0008621-1.2028198-0.0382614-1.8000031-0.1119995c-0.6086578-0.0740051-1.1679993-0.1643372-1.6779938-0.2710037
			c-0.5100098-0.1066742-0.9340057-0.206665-1.2720032-0.3000031c-0.1903229-0.057373-0.3840332-0.1027908-0.5800018-0.1360016
			c-0.1125031-0.0002365-0.2215118,0.0390472-0.3079987,0.1110001c-0.0910034,0.0739975-0.1760101,0.1520004-0.2590027,0.2350006
			l-0.2720032-0.0739975l1.0130005-3.3079987L145.3794861,122.3420029z"/>
		<path id="パス_795" class="st0" d="M163.1524811,115.4059982c-0.1972504,0.0072861-0.3926544,0.0409164-0.5809937,0.0999985
			c-0.1421356,0.0516586-0.2294006,0.195015-0.2100067,0.3450012v9.3799973
			c-0.0193939,0.1499863,0.0678711,0.2933426,0.2100067,0.3450012c0.1886292,0.0578613,0.3838654,0.0914612,0.5809937,0.0999985
			v0.3000031h-4.8880005v-0.3000031c0.1968079-0.0084915,0.3917236-0.0420914,0.5800018-0.0999985
			c0.1421356-0.0516586,0.2294006-0.1950226,0.2100067-0.3450012v-9.3799973
			c0.0193939-0.1499786-0.0678711-0.2933426-0.2100067-0.3450012c-0.187973-0.0591583-0.3830566-0.0927963-0.5800018-0.0999985
			v-0.3000031h4.8880005V115.4059982z"/>
		<path id="パス_796" class="st0" d="M176.3574829,119.2809982l-0.3459778-0.1719971
			c0.0171204-0.0677109,0.0378113-0.1344681,0.0619812-0.1999969c0.0263367-0.0713501,0.0392151-0.1469574,0.0379944-0.2229996
			c0-0.0999985-0.1000061-0.2139969-0.3079834-0.3460007c-0.2481079-0.1501846-0.5133362-0.2700424-0.7900085-0.3570023
			c-0.3562622-0.1162109-0.7192688-0.2107162-1.0870056-0.2829971c-0.4020081-0.0831223-0.8114624-0.1250076-1.2219849-0.125
			c-0.4742737,0.0017319-0.9466248,0.0601425-1.4070129,0.1740036c-0.4538574,0.1065216-0.8872375,0.2865601-1.2829895,0.5329971
			c-0.3747253,0.2353134-0.6948853,0.5479584-0.9389954,0.9169998c-0.2556763,0.4031982-0.384552,0.8737946-0.3699951,1.3509979
			c-0.0107117,0.4729691,0.1179504,0.9386292,0.3699951,1.3389969c0.2416992,0.3739929,0.5621643,0.6907043,0.9389954,0.9280014
			c0.3954773,0.2469482,0.828949,0.4270325,1.2829895,0.5329971c0.4603882,0.1138611,0.9327393,0.1722717,1.4070129,0.1740036
			c0.4729614,0.0034637,0.9441528-0.0587997,1.3999939-0.1849976c0.4000549-0.1103439,0.7885132-0.2590332,1.1600037-0.4440002
			c0.284668-0.1384888,0.5502319-0.3132706,0.789978-0.5199966c0.1889954-0.1719971,0.28302-0.3000031,0.28302-0.3820038v-0.2229996
			c0.0029907-0.0744476-0.0050964-0.1489334-0.0240173-0.2210007l0.2720032-0.1719971l2.3450012,3.3690033l-0.2999878,0.1709976
			c-0.1480103-0.1790009-0.2790222-0.2689972-0.3999939-0.2689972c-0.1868591,0.0468445-0.3657837,0.1209717-0.5310059,0.2200012
			c-0.2879944,0.1473312-0.6703491,0.3139954-1.1470032,0.5c-0.5486145,0.2082214-1.1144409,0.367836-1.6910095,0.4769974
			c-0.7116089,0.137825-1.4351501,0.2048187-2.1600037,0.1999969c-0.8913574,0.001236-1.780426-0.08992-2.6529846-0.2720032
			c-0.8196411-0.1633835-1.6018677-0.477356-2.3070068-0.9260025c-0.6721497-0.4333954-1.2307434-1.0214615-1.6289978-1.7149963
			c-1.366394-2.3648376-0.6520386-5.3848953,1.6289978-6.887001c0.7061157-0.457283,1.4869385-0.7872772,2.3070068-0.9749985
			c0.8691711-0.2063828,1.7596436-0.3097534,2.6529846-0.3079987c0.5296326-0.0010986,1.0583496,0.0444107,1.5800171,0.1360016
			c0.5093384,0.0906754,0.9783325,0.1850052,1.4069824,0.2829971c0.4286804,0.0979996,0.7990112,0.1926651,1.1109924,0.2839966
			c0.2160034,0.0722046,0.4400024,0.1178741,0.6670227,0.1360016c0.0804138,0.0004425,0.158783-0.0255585,0.2229919-0.0739975
			c0.0569153-0.0408096,0.1065979-0.0908279,0.1470032-0.1480026l0.3000183,0.0999985L176.3574829,119.2809982z"/>
		<path id="パス_797" class="st0" d="M190.3534851,125.6729965c0.067276-0.0016785,0.1342316-0.0097122,0.1999969-0.0240021
			c0.0820007-0.0159988,0.1230011-0.0830002,0.1230011-0.1999969c-0.010788-0.1069641-0.0402374-0.2112045-0.0870056-0.3079987
			c-0.0579987-0.1399994-0.1230011-0.2919998-0.1999969-0.4570007s-0.1519928-0.3300018-0.2339935-0.4940033
			s-0.147995-0.3000031-0.1999969-0.4189987h-5.727005c-0.0437775,0.1431351-0.097229,0.2831192-0.1600037,0.4189987
			c-0.0740051,0.1650009-0.1519928,0.3300018-0.2350006,0.4940033s-0.1560059,0.3170013-0.220993,0.4570007
			c-0.0534058,0.0950317-0.0874023,0.1997223-0.1000061,0.3079987c0,0.1139984,0.0420074,0.1809998,0.1230011,0.1999969
			c0.0657501,0.0143585,0.1327209,0.0223923,0.1999969,0.0240021v0.3000031h-3.6999969v-0.3000031
			c0.1031799-0.0000076,0.2052765-0.0211029,0.3000031-0.0619965c0.089859-0.0305481,0.1625519-0.0977859,0.1999969-0.1849976
			c0.4933319-1.1513367,0.9953308-2.2906647,1.5059967-3.4179993c0.5106506-1.1273346,0.9673157-2.1476593,1.3699951-3.060997
			c0.3999939-0.9133377,0.7333374-1.6703339,1-2.2709961c0.1657715-0.3277588,0.2997131-0.6706619,0.3999939-1.0240021
			c0-0.1480026-0.1069946-0.2300034-0.3209991-0.2470016v-0.3000031h5.1580048v0.3000031
			c-0.2140045,0.0159988-0.3209991,0.0999985-0.3209991,0.2470016c0.0661774,0.2254486,0.1528778,0.4443665,0.2590027,0.6539993
			c0.173996,0.3860016,0.3999939,0.8720016,0.6790009,1.4560013l0.9250031,1.9369965
			c0.337326,0.7080002,0.6750031,1.4159927,1.0130005,2.1240005c0.3379974,0.7080002,0.6546631,1.3786621,0.9499969,2.012001
			c0.2966614,0.6326675,0.5353394,1.1633377,0.7160034,1.5920029c0.0374451,0.0872116,0.1101379,0.1544495,0.1999969,0.1849976
			c0.0947571,0.0408173,0.1968231,0.0619049,0.3000031,0.0619965v0.3000031h-4.1000061L190.3534851,125.6729965z
			 M187.0454865,117.6729965l-2.0240021,4.3190002h4.1000061L187.0454865,117.6729965z"/>
		<path id="パス_798" class="st0" d="M196.7454834,115.8499985c0.0203857-0.1472626-0.0620728-0.289505-0.1999817-0.3450012
			c-0.1507568-0.0543747-0.308197-0.0880203-0.4680176-0.0999985v-0.3000031h4.6150208v0.3000031
			c-0.1564026,0.0108948-0.3103638,0.0445786-0.4570007,0.0999985c-0.1313171,0.0613098-0.206604,0.2017136-0.1849976,0.3450012
			v7.5999985h6.7640076c0.109436-0.0031509,0.2148438-0.0421448,0.2999878-0.1110001
			c0.1000061-0.0739975,0.1480103-0.2429962,0.1480103-0.5070038H207.5625v3.6790009h-0.2999878
			c0-0.2639999-0.0490112-0.4199982-0.1480103-0.4690018c-0.0924988-0.0486832-0.1954651-0.0740814-0.2999878-0.0739975h-10.7350159
			v-0.3000031c0.1596375-0.0132065,0.3168945-0.046814,0.4679871-0.0999985
			c0.1379395-0.0554962,0.2203979-0.1977386,0.2000122-0.3450012L196.7454834,115.8499985z"/>
		<path id="パス_799" class="st0" d="M210.0984802,128.1669922c0.5132904-0.199852,0.9920959-0.4789047,1.4190063-0.8269958
			c0.4298859-0.3437271,0.723114-0.829483,0.8269958-1.3700027c-0.5775146,0.0171204-1.1476898-0.1328888-1.6419983-0.4319992
			c-0.4738159-0.3320312-0.7327423-0.8930206-0.6779938-1.4690018c-0.0231018-0.5251846,0.2066498-1.0296707,0.6179962-1.3570023
			c0.4044647-0.3262863,0.9103851-0.5007019,1.4299927-0.4929962c0.6122589-0.0559616,1.212738,0.1935806,1.6049957,0.6669998
			c0.3518219,0.5232162,0.5247803,1.1462936,0.4929962,1.776001c0.0101624,0.5320816-0.1125488,1.0582886-0.3569946,1.5309982
			c-0.2429962,0.4493027-0.5555115,0.8573456-0.9259949,1.2089996c-0.3894653,0.3693619-0.8299713,0.6808777-1.3079987,0.9250031
			c-0.4766083,0.2480469-0.971756,0.4586792-1.4810028,0.6300049V128.1669922z"/>
		<path id="パス_800" class="st0" d="M228.7084961,114.961998c0.7885284,0.0020981,1.5731964,0.1100616,2.3329926,0.3209991
			c0.7610474,0.2048187,1.4795837,0.5434265,2.121994,1c0.637558,0.4574966,1.1644745,1.052063,1.5420074,1.7399979
			c0.7901917,1.5898972,0.7901917,3.4580994,0,5.0479965c-0.3781586,0.6808701-0.9052887,1.2674789-1.5420074,1.7160034
			c-0.6423492,0.4480743-1.3616638,0.7741699-2.121994,0.961998c-1.530014,0.3941879-3.1349792,0.3941879-4.6649933,0
			c-0.7609863-0.1877289-1.4809723-0.5138168-2.1239929-0.961998c-0.6363983-0.4488907-1.1634521-1.0354156-1.5420074-1.7160034
			c-0.7886353-1.5902557-0.7886353-3.4577408,0-5.0479965c0.3779144-0.6876602,0.9047699-1.2821503,1.5420074-1.7399979
			c0.6430969-0.4566574,1.3622894-0.7952652,2.1239929-1c0.7597656-0.2110443,1.5444641-0.3190079,2.3329926-0.3209991
			 M228.7094879,117.5789948c-0.4445801-0.0023575-0.8865051,0.0685959-1.3079987,0.2099991
			c-0.39505,0.133255-0.7629089,0.3364868-1.0859985,0.5999985c-0.3092346,0.2515793-0.5580292,0.569397-0.7279968,0.9300003
			c-0.345459,0.7898788-0.345459,1.688118,0,2.4779968c0.1699677,0.3606033,0.4187622,0.678421,0.7279968,0.9300003
			c0.3227692,0.2639847,0.6907196,0.4672699,1.0859985,0.5999985c0.4214935,0.1413879,0.8634186,0.2123413,1.3079987,0.2099991
			c0.4486694,0.0045319,0.8948975-0.0664597,1.3200073-0.2099991c0.3907013-0.1348419,0.7543488-0.3379974,1.0740051-0.5999985
			c0.3085175-0.2522888,0.5571594-0.569931,0.7279968-0.9300003c0.345459-0.7898788,0.345459-1.688118,0-2.4779968
			c-0.1708374-0.3600693-0.4194794-0.6777115-0.7279968-0.9300003c-0.3199768-0.261528-0.683548-0.4646301-1.0740051-0.5999985
			C229.6043854,117.6454544,229.1581573,117.5744629,228.7094879,117.5789948"/>
		<path id="パス_801" class="st0" d="M238.0624695,115.8499985c0-0.1809998-0.0579834-0.3000031-0.1739807-0.3460007
			c-0.1176758-0.0505447-0.2419128-0.0842056-0.3690186-0.0999985v-0.3000031h7.9219971
			c1.0529175-0.0553055,2.0932922,0.2493973,2.9500122,0.8639984c0.7575684,0.6294022,1.1667786,1.584343,1.1000061,2.5670013
			c0.0408936,0.7805481-0.2403564,1.5436707-0.7780151,2.1110001c-0.5588379,0.5437698-1.2283936,0.9605789-1.9629822,1.2220001
			l2.1999817,3.3079987c0.0916138,0.1412888,0.2144165,0.2596664,0.3590088,0.3460007
			c0.1510315,0.0966034,0.3266907,0.1476364,0.5059814,0.1470032v0.3000031h-4.9859924v-0.3000031
			c0.1296387-0.0022659,0.2583008-0.0231476,0.382019-0.0619965c0.1246338-0.0219116,0.2138977-0.1325455,0.2089844-0.2590027
			c-0.0524597-0.2179794-0.1399231-0.4260178-0.2590027-0.6159973c-0.1719666-0.3293304-0.368988-0.6833344-0.5910034-1.0619965
			s-0.4363098-0.7406616-0.6430054-1.0859985c-0.2049866-0.3460007-0.3320007-0.5670013-0.3809814-0.6669998h-2.3699951v3.3079987
			c-0.0213928,0.1435089,0.053772,0.2840805,0.1849976,0.3460007c0.1467896,0.0549316,0.3006592,0.0886078,0.4570007,0.0999985
			v0.3000031h-4.2449951v-0.3000031c0.11026-0.020462,0.2177124-0.0540314,0.3200073-0.0999985
			c0.1159973-0.0490036,0.1739807-0.1650009,0.1739807-0.3460007L238.0624695,115.8499985z M244.6774902,119.8499985
			c0.4404907,0.0244522,0.8773193-0.0921936,1.2469788-0.3330002c0.3109741-0.2351532,0.4827271-0.6109924,0.4570007-1
			c0.0090332-0.3561707-0.1300049-0.7001343-0.3840027-0.9499969c-0.432373-0.308876-0.9642334-0.4457703-1.4920044-0.3840027
			h-3.3329773v2.6610031L244.6774902,119.8499985z"/>
		<path id="パス_802" class="st0" d="M264.0774841,123.4280014c-0.0019226,0.1569824,0.040741,0.3112869,0.1230164,0.4449997
			c0.069458,0.1255035,0.2025452,0.2024231,0.3459778,0.1999969h0.2209778v0.3000031
			c-0.3953247,0.1999969-0.8476562,0.4016647-1.3569946,0.6050034c-0.5402832,0.2154999-1.0921021,0.4007874-1.6529846,0.5550003
			c-0.6002502,0.1660461-1.2104797,0.2936401-1.8269958,0.3820038c-0.6213379,0.0897141-1.24823,0.1351624-1.8760071,0.1360016
			c-0.8891907,0.0063629-1.7759094-0.0943604-2.6410065-0.3000031c-0.7500458-0.1703415-1.4535828-0.5031662-2.0610046-0.9749985
			c-0.575882-0.4611816-1.0332489-1.0532837-1.3339996-1.7269974c-0.3382874-0.7890396-0.5023499-1.6417694-0.4810028-2.5
			c-0.0235291-0.8667679,0.1623993-1.7264175,0.5420074-2.5059967c0.346756-0.6798172,0.8452759-1.2707214,1.4570007-1.7269974
			c0.6272888-0.4625702,1.3344269-0.8056259,2.0859985-1.012001c0.790863-0.223671,1.6091003-0.3357544,2.4309998-0.3330002
			c0.5739136-0.0035172,1.1473389,0.033577,1.7160034,0.1110001c0.4606934,0.0633926,0.9179382,0.1498337,1.3699951,0.2590027
			c0.3939819,0.0999985,0.7180176,0.1849976,0.973999,0.2590027c0.1643677,0.055687,0.3344116,0.0929184,0.507019,0.1110001
			c0.0924072,0.0127716,0.1859741-0.0137024,0.2579956-0.072998c0.0419922-0.0500031,0.0999756-0.1070023,0.1609802-0.1740036
			l0.3000183,0.0500031l-1.2850342,3.2570038l-0.2999878-0.1480026v-0.1719971c0-0.1480026-0.1119995-0.2870026-0.3330078-0.4189987
			c-0.2617798-0.1493759-0.5390625-0.2697601-0.8269653-0.3590012c-0.3409424-0.1138229-0.6903687-0.2004395-1.0449829-0.2590256
			c-0.3306274-0.0545578-0.6649475-0.0836411-1-0.086998c-0.4906616-0.0022125-0.9797058,0.0562286-1.4559937,0.1740036
			c-0.43573,0.1016312-0.8448181,0.2949219-1.2000122,0.5670013c-0.340332,0.2670593-0.6141663,0.6093445-0.8000031,1
			c-0.2108917,0.4599686-0.3135223,0.9621658-0.3000031,1.4680023c-0.0131073,0.5222473,0.089325,1.040947,0.3000031,1.5189972
			c0.1856232,0.404541,0.4645996,0.7592621,0.8139954,1.0350037c0.359726,0.2785187,0.7704315,0.4840393,1.2089996,0.6050034
			c0.4902039,0.1367111,0.9971008,0.2040329,1.506012,0.1999969c0.4045715,0.0004578,0.8086548-0.0286179,1.2089844-0.086998
			c0.40271-0.0584335,0.7993164-0.1531525,1.1849976-0.2829971v-1.5999985h-2.072998
			c-0.1601562-0.0234833-0.3147583,0.0688553-0.3699951,0.2210007c-0.0435181,0.1188049-0.0684814,0.2435989-0.0740051,0.3700027
			h-0.3000183v-3.0599976h0.3000183c0.0055237,0.1264038,0.0304871,0.2511978,0.0740051,0.3700027
			c0.055542,0.151886,0.2098999,0.2440872,0.3699951,0.2210007h5.1340027V123.4280014z"/>
		<path id="パス_803" class="st0" d="M276.3964844,125.6729965c0.0672607-0.0016785,0.1342163-0.0097198,0.1999817-0.0240021
			c0.0820007-0.0159988,0.1230164-0.0830002,0.1230164-0.1999969c-0.0108032-0.1069641-0.0402527-0.2112045-0.0870056-0.3079987
			c-0.0580139-0.1399994-0.1230164-0.2919998-0.2000122-0.4570007s-0.1519775-0.3300018-0.2339783-0.4940033
			s-0.1480103-0.3000031-0.2000122-0.4189987h-5.7269897c-0.0437927,0.1431274-0.0972595,0.2831116-0.1600037,0.4189987
			c-0.0740051,0.1646729-0.1523438,0.3293304-0.2350159,0.4940033c-0.0820007,0.1650009-0.1560059,0.3170013-0.2209778,0.4570007
			c-0.0534058,0.0950317-0.0874023,0.1997223-0.1000061,0.3079987c0,0.1139984,0.0419922,0.1809998,0.1229858,0.1999969
			c0.0657654,0.0143585,0.1327209,0.0223923,0.2000122,0.0240021v0.3000031h-3.7000122v-0.3000031
			c0.1031799-0.0000076,0.2052917-0.0211029,0.3000183-0.0619965c0.0898438-0.0305481,0.1625366-0.0977859,0.1999817-0.1849976
			c0.4933472-1.1513367,0.9953308-2.2906647,1.506012-3.4179993c0.5106506-1.1273346,0.9673157-2.1476593,1.3699951-3.060997
			c0.3999939-0.9133377,0.7333374-1.6703339,1-2.2709961c0.1657715-0.3277588,0.2997131-0.6706619,0.3999939-1.0240021
			c0-0.1480026-0.1069946-0.2300034-0.3210144-0.2470016v-0.3000031h5.1470337v0.3000031
			c-0.2140198,0.0159988-0.3210144,0.0999985-0.3210144,0.2470016c0.0661926,0.2254562,0.1528625,0.4443741,0.2590027,0.6539993
			c0.1740112,0.3860016,0.3999939,0.8720016,0.6790161,1.4560013l0.9249878,1.9369965
			c0.3373413,0.7080002,0.6749878,1.4159927,1.0130005,2.1240005c0.3380127,0.7080002,0.6546631,1.3786621,0.9500122,2.012001
			c0.2966614,0.6326675,0.5353394,1.1633377,0.7160034,1.5920029c0.0374451,0.0872116,0.1101379,0.1544495,0.1999817,0.1849976
			c0.0947571,0.0408173,0.1968384,0.0619049,0.3000183,0.0619965v0.3000031h-4.1000061L276.3964844,125.6729965z
			 M273.0884705,117.6729965l-2.0239868,4.3190002h4.1000061L273.0884705,117.6729965z"/>
		<path id="パス_804" class="st0" d="M294.9614868,125.2300034c-0.0203857,0.1472626,0.0620728,0.289505,0.2000122,0.3450012
			c0.1590881,0.0552673,0.3249207,0.0888977,0.492981,0.0999985v0.3000031h-4.565979v-0.3000031
			c0.1535645-0.0020065,0.3066101-0.0187531,0.4570007-0.0500031c0.1719971-0.0309982,0.2590027-0.1220016,0.2590027-0.2710037
			s-0.1809998-0.4240036-0.5429993-0.8280029s-0.8269958-0.9000015-1.3940125-1.4919968
			c-0.5669861-0.5919952-1.2070007-1.2559967-1.9140015-1.987999s-1.4069824-1.5080032-2.1000061-2.3330002l-0.0499878,0.0500031
			v6.4670029c-0.0210876,0.1434708,0.0545349,0.2837601,0.1860046,0.3450012
			c0.1460876,0.0549088,0.2993164,0.0885849,0.4549866,0.0999985v0.3000031h-4.2209778v-0.3000031
			c0.1482849-0.013031,0.2940063-0.0466843,0.4329834-0.0999985c0.1313171-0.0613098,0.206604-0.2017136,0.1849976-0.3450012
			v-9.3799973c0.0196533-0.1471176-0.062561-0.2889404-0.1999817-0.3450012
			c-0.1512451-0.0538864-0.3089294-0.0875092-0.4689941-0.0999985v-0.3000031h5.875v0.3000031
			c-0.1192627,0.0178909-0.2355957,0.0515213-0.3460083,0.0999985c-0.1149902,0.0490036-0.1719971,0.1650009-0.1719971,0.3450012
			c0.1146545,0.1845779,0.250946,0.3547897,0.4060059,0.5070038c0.2720032,0.3046646,0.6216736,0.6870041,1.0490112,1.1470032
			c0.4273071,0.4600067,0.9046631,0.9699936,1.4320068,1.5299988l1.5799866,1.6800003v-4.8640137
			c0.0196533-0.1471176-0.062561-0.2889404-0.1999817-0.3450012c-0.1594543-0.0553589-0.325592-0.0889893-0.4940186-0.0999985
			v-0.3000031h4.3439941v0.3000031c-0.1680603,0.0111084-0.3338623,0.0447464-0.492981,0.0999985
			c-0.1376953,0.0557785-0.2200317,0.1978073-0.2000122,0.3450012L294.9614868,125.2300034z"/>
		<path id="パス_805" class="st0" d="M302.7084961,115.4059982c-0.1969299,0.0073624-0.3919983,0.0409927-0.5800171,0.0999985
			c-0.1421204,0.0516586-0.2294006,0.195015-0.2099915,0.3450012v9.3799973
			c-0.0194092,0.1499863,0.0678711,0.2933426,0.2099915,0.3450012c0.188324,0.057785,0.3832092,0.0913925,0.5800171,0.0999985
			v0.3000031h-4.8880005v-0.3000031c0.1968079-0.0084915,0.3917236-0.0420914,0.5799866-0.0999985
			c0.1421509-0.0516586,0.2294006-0.195015,0.210022-0.3450012v-9.3799973
			c0.0193787-0.1499863-0.0678711-0.2933426-0.210022-0.3450012c-0.1879883-0.0591583-0.3830566-0.0927963-0.5799866-0.0999985
			v-0.3000031h4.8880005V115.4059982z"/>
		<path id="パス_806" class="st0" d="M315.6664734,119.2809982l-0.3459778-0.1719971
			c0.0171509-0.0677032,0.0378418-0.1344604,0.0619812-0.1999969c0.0263062-0.0713577,0.0391846-0.1469574,0.0379944-0.2229996
			c0-0.0999985-0.1000061-0.2139969-0.3079834-0.3460007c-0.2481079-0.1501999-0.5133362-0.2700577-0.7900085-0.3570023
			c-0.3562927-0.1162033-0.7192688-0.2107086-1.0870056-0.2829971c-0.4020081-0.0831146-0.8114624-0.125-1.2219849-0.125
			c-0.4742737,0.0017319-0.9466248,0.0601425-1.4070129,0.1740036c-0.4538574,0.1065216-0.8872375,0.2865601-1.2829895,0.5329971
			c-0.3747253,0.2353134-0.6948853,0.5479584-0.9389954,0.9169998c-0.2557373,0.4031754-0.384613,0.8737869-0.3699951,1.3509979
			c-0.0107117,0.4729691,0.1179504,0.9386292,0.3699951,1.3389969c0.2416992,0.3739929,0.5621643,0.6907043,0.9389954,0.9280014
			c0.3954773,0.2469482,0.828949,0.4270325,1.2829895,0.5329971c0.4603882,0.1138611,0.9327393,0.1722717,1.4070129,0.1740036
			c0.4729614,0.0034637,0.9441528-0.0587997,1.3999939-0.1849976c0.4000549-0.1103363,0.7885132-0.2590256,1.1600037-0.4440002
			c0.284668-0.138504,0.5502014-0.3132935,0.789978-0.5199966c0.1889954-0.1719971,0.28302-0.3000031,0.28302-0.3820038v-0.2229996
			c0.0029602-0.0744476-0.005127-0.1489258-0.0240173-0.2210007l0.2720032-0.1719971l2.3450012,3.3690033l-0.2999878,0.1709976
			c-0.1480103-0.1790009-0.2790222-0.2689972-0.3999939-0.2689972c-0.1868591,0.0468521-0.3657837,0.1209869-0.5310059,0.2200012
			c-0.2880249,0.1473312-0.6703491,0.3139954-1.1470032,0.5c-0.5486145,0.2082291-1.1144409,0.367836-1.6910095,0.4769974
			c-0.7116394,0.1378174-1.4351501,0.2048111-2.1600037,0.1999969c-0.8913574,0.001236-1.780426-0.08992-2.6529846-0.2720032
			c-0.8196411-0.1633606-1.6018982-0.4773331-2.3070068-0.9260025c-0.6721802-0.4333649-1.2307739-1.0214386-1.6289978-1.7149963
			c-1.366394-2.3648376-0.6520386-5.3848953,1.6289978-6.887001c0.7061157-0.457283,1.4869385-0.7872772,2.3070068-0.9749985
			c0.8691711-0.2063828,1.7596436-0.3097534,2.6529846-0.3079987c0.5296326-0.0010986,1.0583496,0.0444107,1.5800171,0.1360016
			c0.5093079,0.0906754,0.9783325,0.1850052,1.4069824,0.2829971c0.4286804,0.0979996,0.7989807,0.1926651,1.1109924,0.2839966
			c0.2160034,0.072197,0.4400024,0.1178665,0.6670227,0.1360016c0.0804138,0.0004425,0.158783-0.0255585,0.2229919-0.0739975
			c0.0569153-0.0407944,0.1065979-0.0908203,0.1470032-0.1480026l0.3000183,0.0999985L315.6664734,119.2809982z"/>
		<path id="パス_807" class="st0" d="M320.7034912,128.1669922c0.5130005-0.2004242,0.9917297-0.4794312,1.4190063-0.8269958
			c0.4288025-0.3443451,0.7212219-0.8299255,0.8249817-1.3700027c-0.5775146,0.0171204-1.1476746-0.1328888-1.6419983-0.4319992
			c-0.4738159-0.3320312-0.7327271-0.8930206-0.6779785-1.4690018c-0.0231018-0.5251846,0.2066345-1.0296707,0.617981-1.3570023
			c0.4051208-0.3264999,0.9117432-0.5009155,1.4320068-0.4929962c0.6106873-0.0549698,1.209198,0.1945419,1.6000061,0.6669998
			c0.3518372,0.5232162,0.5248108,1.1462936,0.4930115,1.776001c0.0112,0.5320663-0.1112061,1.0584488-0.3559875,1.5309982
			c-0.2425537,0.449585-0.5551147,0.8576965-0.9259949,1.2089996c-0.3891296,0.3693466-0.8292847,0.6808624-1.3070068,0.9250031
			c-0.4767151,0.2478333-0.9718628,0.4584503-1.4810181,0.6300049L320.7034912,128.1669922z"/>
		<path id="パス_808" class="st0" d="M334.0544739,122.3420029c-0.0003357,0.0373611-0.0046997,0.0745697-0.0130005,0.1110001
			c-0.0096741,0.0531006-0.0140381,0.1070328-0.0130005,0.1610031c0,0.1650009,0.1560059,0.3209991,0.4710083,0.4680023
			c0.3860474,0.1740189,0.7879028,0.3106384,1.2000122,0.4079971c0.5201111,0.131897,1.0477295,0.2320786,1.5799866,0.3000031
			c0.5272827,0.0722809,1.0587769,0.1096954,1.5910034,0.1119995c0.1470032,0,0.3500061-0.0090027,0.605011-0.0250015
			c0.2550354-0.0165329,0.5073547-0.0621643,0.7520142-0.1360016c0.2287292-0.0646439,0.4424438-0.1737213,0.6289978-0.3209991
			c0.1741333-0.1407776,0.2704163-0.356369,0.2590027-0.5800018c-0.0118713-0.3417511-0.256073-0.6309814-0.5910034-0.6999969
			c-0.4855957-0.1594772-0.9867249-0.2670746-1.4949951-0.3209991c-0.6000061-0.0740051-1.25-0.1519928-1.9500122-0.2340012
			c-0.663208-0.0747375-1.3165588-0.2198868-1.9490051-0.4329987c-0.5582581-0.1796112-1.0686951-0.4831848-1.4930115-0.8880005
			c-0.4133911-0.4334106-0.6281738-1.0190811-0.5929871-1.6169968c0.0112-0.4241333,0.1134949-0.8408966,0.2999878-1.2220001
			c0.2181396-0.4653625,0.5384216-0.8755341,0.9370117-1.1999969c0.5032654-0.4018631,1.0765991-0.7070084,1.6910095-0.9000015
			c0.8266907-0.2567215,1.6896057-0.3772964,2.5549927-0.3570023c0.5651855-0.0009232,1.1298828,0.0324707,1.6910095,0.0999985
			c0.5329895,0.0670013,1.0190125,0.1399994,1.4559937,0.2229996s0.8049927,0.1559982,1.1109924,0.2210007
			c0.2140503,0.0538177,0.4326782,0.0872955,0.6530151,0.0999985c0.1174316,0.0045547,0.2322998-0.0350418,0.321991-0.1110001
			c0.0809937-0.0739975,0.1560059-0.1360016,0.2210083-0.185997l0.2720032,0.0999985l-1.4809875,3.1100006l-0.3210144-0.1480026
			c0.0007629-0.0412979,0.005127-0.0824509,0.0130005-0.1230011c0.0074463-0.0489807,0.0111084-0.0984573,0.0109863-0.1480026
			c0-0.0650024-0.1000061-0.1470032-0.2999878-0.2470016c-0.2505798-0.1205673-0.5104065-0.2208939-0.7770081-0.3000031
			c-0.3564758-0.1080551-0.7191162-0.1945419-1.0859985-0.2590027c-0.4114075-0.0751572-0.8287964-0.112648-1.2470093-0.1119995
			c-0.1480103,0-0.3789978,0.0049973-0.6910095,0.0130005c-0.3163757,0.0087204-0.6310425,0.0499344-0.9389954,0.1230011
			c-0.2900391,0.0654221-0.5687561,0.1736069-0.8269958,0.3209991c-0.22995,0.1244278-0.3691711,0.3687439-0.3590088,0.6299973
			c0,0.2953415,0.1976624,0.5049973,0.5929871,0.6289978c0.4880981,0.142807,0.9876404,0.2431793,1.4930115,0.3000031
			c0.6000061,0.072998,1.2510071,0.1559982,1.9500122,0.2450027c0.6643372,0.0834579,1.3179932,0.2369766,1.9500122,0.4580002
			c0.5627441,0.1867676,1.0749512,0.5005341,1.4969788,0.9170074c0.4174194,0.4608154,0.6315308,1.0703812,0.5939941,1.6910019
			c0.000061,0.4754257-0.1101685,0.9443817-0.321991,1.3700027c-0.2304382,0.456871-0.5688782,0.8506012-0.9859924,1.1470032
			c-0.5093994,0.358696-1.0837402,0.6147919-1.6910095,0.7539978c-0.7967224,0.1851654-1.6131287,0.2721481-2.4309998,0.2590027
			c-0.6017151-0.0009537-1.2027893-0.038353-1.7999878-0.1119995c-0.6080017-0.0739975-1.1690063-0.1640015-1.678009-0.2710037
			s-0.9339905-0.2060013-1.2709961-0.3000031c-0.1905823-0.0575714-0.3846436-0.1029968-0.5809937-0.1360016
			c-0.1124268,0.0001755-0.2213135,0.0394135-0.3080139,0.1110001c-0.0889893,0.0739975-0.1759949,0.1520004-0.2590027,0.2350006
			l-0.2720032-0.0739975l1.0050049-3.3040085L334.0544739,122.3420029z"/>
		<path id="パス_809" class="st0" d="M347.457489,115.8499985c0.0194092-0.1499786-0.0678711-0.2933426-0.2099915-0.3450012
			c-0.1636047-0.0551758-0.3337097-0.0887909-0.506012-0.0999985v-0.3000031h4.4419861v0.3000031
			c-0.0948181,0.0207443-0.1863403,0.05439-0.2720032,0.0999985c-0.1000061,0.0490036-0.1470032,0.1640015-0.1470032,0.3450012v6
			c-0.0437622,0.5399399,0.2178955,1.0590591,0.678009,1.3450012c1.1311035,0.5434799,2.4479065,0.5434799,3.57901,0
			c0.4606628-0.2855301,0.7228088-0.8048096,0.6789856-1.3450012v-6c0-0.1809998-0.0490112-0.3000031-0.1480103-0.3450012
			c-0.0857544-0.0454254-0.1772461-0.0790634-0.2720032-0.0999985v-0.3000031h4.4440002v0.3000031
			c-0.1723022,0.0110931-0.3424377,0.0447083-0.506012,0.0999985c-0.142395,0.0513535-0.2297668,0.1949387-0.2099915,0.3450012
			v5.4300003c0.0035095,0.6333008-0.0978394,1.2628174-0.2999878,1.862999
			c-0.1943054,0.5795975-0.5241089,1.1044617-0.9620056,1.5309982c-0.5046082,0.4717407-1.112915,0.8183823-1.776001,1.012001
			c-1.7954102,0.4780045-3.6846008,0.4780045-5.480011,0c-0.6636963-0.1935349-1.2727051-0.5401688-1.7780151-1.012001
			c-0.4375-0.4268494-0.7672424-0.9516144-0.9620056-1.5309982c-0.2015381-0.6003265-0.302887-1.229744-0.2999878-1.862999
			L347.457489,115.8499985z"/>
		<path id="パス_810" class="st0" d="M363.0064697,122.3420029c-0.0003662,0.0373611-0.0046997,0.0745697-0.0130005,0.1110001
			c-0.0097046,0.0531006-0.0140381,0.1070328-0.0130005,0.1610031c0,0.1650009,0.1560059,0.3209991,0.4710083,0.4680023
			c0.3860474,0.1740036,0.7879028,0.3106232,1.2000122,0.4079971c0.5201111,0.1318893,1.0477295,0.2320786,1.5799866,0.3000031
			c0.5272827,0.0722809,1.0587769,0.1096954,1.5910034,0.1119995c0.1470032,0,0.3500061-0.0090027,0.605011-0.0250015
			c0.2550354-0.0165329,0.5073547-0.0621643,0.7520142-0.1360016c0.2287292-0.0646439,0.4424438-0.1737213,0.6289978-0.3209991
			c0.1741333-0.1407776,0.2704163-0.356369,0.2590027-0.5800018c-0.0118713-0.3417511-0.256073-0.6309814-0.5910034-0.6999969
			c-0.4855957-0.1594849-0.9867249-0.2670822-1.4949951-0.3209991c-0.5999756-0.0740051-1.25-0.1519928-1.9500122-0.2340012
			c-0.663208-0.0747375-1.3165588-0.2198868-1.9490051-0.4329987c-0.5582581-0.1796112-1.0686951-0.4831848-1.4930115-0.8880005
			c-0.4133911-0.4334106-0.6281738-1.0190811-0.5929871-1.6169968c0.0112-0.4241333,0.1134949-0.8408966,0.2999878-1.2220001
			c0.2181396-0.4653625,0.5384216-0.8755341,0.9370117-1.1999969c0.5032654-0.4018402,1.0765991-0.7069855,1.6910095-0.9000015
			c0.8266907-0.2567215,1.6896057-0.3772964,2.5549927-0.3570023c0.5651855-0.0009308,1.1298828,0.0324631,1.6910095,0.0999985
			c0.5329895,0.0670013,1.0190125,0.1399994,1.4559937,0.2229996s0.8049927,0.1559982,1.1109924,0.2210007
			c0.2140503,0.0538101,0.4326782,0.0872955,0.6530151,0.0999985c0.1174316,0.0045547,0.2322998-0.0350418,0.321991-0.1110001
			c0.0809937-0.0739975,0.1560059-0.1360016,0.2210083-0.185997l0.2720032,0.0999985l-1.4809875,3.1100006l-0.3210144-0.1480026
			c0.0007935-0.0412979,0.005127-0.0824509,0.0130005-0.1230011c0.0074158-0.0489807,0.0111084-0.0984573,0.0109863-0.1480026
			c0-0.0650024-0.1000061-0.1470032-0.2999878-0.2470016c-0.2505798-0.1205597-0.5104065-0.2208786-0.7770081-0.3000031
			c-0.3564758-0.1080475-0.7191162-0.1945343-1.0859985-0.2590027c-0.4114075-0.0751572-0.8287964-0.112648-1.2470093-0.1119995
			c-0.1480103,0-0.3789978,0.0049973-0.6910095,0.0130005c-0.3163757,0.008728-0.6310425,0.049942-0.9389954,0.1230011
			c-0.2900391,0.0654221-0.5687561,0.1736069-0.8269958,0.3209991c-0.22995,0.1244278-0.3691711,0.3687439-0.3590088,0.6299973
			c0,0.2953415,0.1976624,0.5049973,0.5929871,0.6289978c0.4880981,0.1427917,0.9876404,0.2431717,1.4930115,0.3000031
			c0.6000061,0.072998,1.2510071,0.1559982,1.9500122,0.2450027c0.6643372,0.0834503,1.3179932,0.236969,1.9500122,0.4580002
			c0.5617065,0.1897812,1.0722351,0.506279,1.4920044,0.9250031c0.4143982,0.4589005,0.627594,1.0647125,0.59198,1.6819992
			c0.000061,0.4754257-0.1101685,0.9443817-0.321991,1.3700027c-0.2304382,0.456871-0.5688782,0.8506012-0.9859924,1.1470032
			c-0.5093994,0.358696-1.0837402,0.6147919-1.6910095,0.7539978c-0.7967224,0.1851578-1.6131287,0.2721405-2.4309998,0.2590027
			c-0.6017151-0.0009537-1.2027893-0.038353-1.7999878-0.1119995c-0.6080017-0.0739975-1.1690063-0.1640015-1.678009-0.2710037
			s-0.9339905-0.2060013-1.2709961-0.3000031c-0.1905823-0.0575943-0.3846436-0.1030197-0.5809937-0.1360016
			c-0.1124268,0.0001755-0.2213135,0.0394135-0.3080139,0.1110001c-0.0889893,0.0739975-0.1759949,0.1520004-0.2590027,0.2350006
			l-0.2720032-0.0739975l1.0130005-3.3079987L363.0064697,122.3420029z"/>
		<path id="パス_811" class="st0" d="M386.5054932,115.1110001c0.1079102-0.0016479,0.212677-0.0365677,0.2999878-0.0999985
			c0.1000061-0.0650024,0.1480103-0.2139969,0.1480103-0.4440002h0.2999878v3.5999985h-0.2999878
			c0-0.2300034-0.0499878-0.3789978-0.1480103-0.4440002c-0.0873108-0.0634308-0.1920776-0.0983505-0.2999878-0.0999985h-3.5299988
			v7.5999985c-0.021759,0.1435928,0.0540771,0.2842712,0.1860046,0.3450012
			c0.122467,0.0497055,0.250885,0.083313,0.3819885,0.0999985v0.3000031h-4.4440002v-0.3000031
			c0.131073-0.0168457,0.2594604-0.0504532,0.3819885-0.0999985c0.1315308-0.0610504,0.2069397-0.2016525,0.1849976-0.3450012
			v-7.5999985h-3.5289917c-0.1078491,0.0020294-0.2124939,0.0369186-0.2999878,0.0999985
			c-0.1000061,0.0650024-0.1480103,0.2139969-0.1480103,0.4440002h-0.2999878v-3.5999985h0.2999878
			c0,0.2300034,0.0499878,0.3789978,0.1480103,0.4440002c0.0874939,0.0630798,0.1921387,0.0979691,0.2999878,0.0999985H386.5054932z
			"/>
		<path id="パス_812" class="st0" d="M397.4154663,125.6729965c0.0672913-0.0016785,0.1342468-0.0097122,0.2000122-0.0240021
			c0.0820007-0.0159988,0.1229858-0.0830002,0.1229858-0.1999969c-0.0113831-0.106842-0.040802-0.2109833-0.0870056-0.3079987
			c-0.0570068-0.1399994-0.1229858-0.2919998-0.2000122-0.4570007s-0.1520081-0.3300018-0.2340088-0.4940033
			s-0.1480103-0.3000031-0.2000122-0.4189987h-5.723999c-0.0447693,0.1429291-0.0985413,0.2828751-0.1610107,0.4189987
			c-0.0740051,0.1646729-0.1523132,0.3293304-0.2349854,0.4940033c-0.0826721,0.1646652-0.1570129,0.3170013-0.2229919,0.4570007
			c-0.0524597,0.0954437-0.0863953,0.1999435-0.1000061,0.3079987c0,0.1139984,0.0419922,0.1809998,0.1229858,0.1999969
			c0.0657654,0.0143585,0.1327209,0.0223999,0.2000122,0.0240021v0.3000031h-3.7000122v-0.3000031
			c0.1031799-0.0000916,0.2052307-0.0211868,0.2999878-0.0619965c0.0899963-0.0303192,0.1627808-0.0976334,0.2000122-0.1849976
			c0.4946594-1.1513367,0.9969788-2.2906647,1.5069885-3.4179993c0.5099792-1.1273346,0.9666443-2.1476593,1.3699951-3.060997
			c0.3999939-0.9133377,0.7333374-1.6703339,1-2.2709961c0.1657715-0.3277588,0.2997131-0.6706619,0.3999939-1.0240021
			c0-0.1480026-0.1069946-0.2300034-0.3210144-0.2470016v-0.3000031h5.1589966v0.3000031
			c-0.2149963,0.0159988-0.321991,0.0999985-0.321991,0.2470016c0.0661926,0.225441,0.1528931,0.4443588,0.2590027,0.6539993
			c0.1740112,0.3860016,0.3999939,0.8720016,0.6789856,1.4560013s0.5889893,1.2300034,0.9249878,1.9369965
			s0.6740112,1.4150009,1.0130005,2.1240005s0.6530151,1.3789978,0.9500122,2.012001s0.5350037,1.1640015,0.7160034,1.5920029
			c0.0374451,0.0872192,0.1101379,0.1544495,0.2000122,0.1849976c0.0947571,0.0407867,0.1968384,0.061882,0.2999878,0.0619965
			v0.3000031h-4.1000061L397.4154663,125.6729965z M394.1074524,117.6729965l-2.0239868,4.3190002h4.1000061
			L394.1074524,117.6729965z"/>
		<path id="パス_813" class="st0" d="M408.2504883,115.4059982c-0.1969299,0.0072098-0.3919983,0.0408401-0.5799866,0.0999985
			c-0.1421204,0.0516586-0.2294006,0.1950226-0.2099915,0.3450012v9.3799973
			c-0.0194092,0.1499786,0.0678711,0.2933426,0.2099915,0.3450012c0.1882935,0.0579071,0.3831787,0.091507,0.5799866,0.0999985
			v0.3000031h-4.8880005v-0.3000031c0.1968079-0.0084915,0.3916931-0.0420914,0.5799866-0.0999985
			c0.1421204-0.0516586,0.2294006-0.1950226,0.2099915-0.3450012v-9.3799973
			c0.0194092-0.1499786-0.0678711-0.2933426-0.2099915-0.3450012c-0.1879883-0.0591583-0.3830566-0.0927887-0.5799866-0.0999985
			v-0.3000031h4.8880005V115.4059982z"/>
		<path id="パス_814" class="st0" d="M423.4544678,125.2300034c-0.0203857,0.1472702,0.0620728,0.2895126,0.2000122,0.3450012
			c0.1594238,0.0553513,0.325592,0.0889893,0.493988,0.0999985v0.3000031h-4.5669861v-0.3000031
			c0.153595-0.0020065,0.3066101-0.0187531,0.4570007-0.0500031c0.1719971-0.0309982,0.2590027-0.1220016,0.2590027-0.2710037
			s-0.1809998-0.4240036-0.5419922-0.8280029s-0.8280029-0.9000015-1.3999939-1.4919968s-1.2049866-1.2559967-1.9110107-1.987999
			s-1.4079895-1.5080032-2.1000061-2.3330002l-0.0490112,0.0500031v6.4670029
			c-0.0213928,0.1429825,0.0533142,0.2831192,0.1839905,0.3450012c0.1468201,0.0548325,0.3006897,0.088501,0.4570007,0.0999985
			v0.3000031h-4.2129822v-0.3000031c0.1479492-0.0131226,0.293335-0.0467758,0.4320068-0.0999985
			c0.1312866-0.0613098,0.2065735-0.2017136,0.1849976-0.3450012v-9.3799973
			c0.0196533-0.1471252-0.062561-0.2889404-0.2000122-0.3450012c-0.1512451-0.0538864-0.3089294-0.0875092-0.4689941-0.0999985
			v-0.3000031h5.875v0.3000031c-0.1192322,0.0179062-0.2355957,0.0515289-0.3460083,0.0999985
			c-0.1140137,0.0490036-0.1719971,0.1650009-0.1719971,0.3450012c0.1141052,0.1849594,0.2504578,0.3552322,0.4060059,0.5070038
			c0.2720032,0.3046646,0.6216736,0.6870041,1.0490112,1.1470032c0.4273376,0.4600067,0.9046936,0.9699936,1.4320068,1.5299988
			l1.5799866,1.6800003v-4.8640137c0.0200195-0.1471939-0.0623169-0.2892227-0.2000122-0.3450012
			c-0.1591187-0.0552597-0.3249512-0.0888901-0.4930115-0.0999985v-0.3000031h4.3439941v0.3000031
			c-0.168396,0.0110092-0.3345642,0.0446472-0.493988,0.0999985c-0.1376953,0.0557785-0.2200317,0.1978073-0.2000122,0.3450012
			L423.4544678,125.2300034z"/>
		<path id="パス_815" class="st0" d="M436.0934753,125.6729965c0.0672913-0.0016785,0.1342468-0.0097198,0.2000122-0.0240021
			c0.0820007-0.0159988,0.1229858-0.0830002,0.1229858-0.1999969c-0.0113831-0.106842-0.040802-0.2109833-0.0870056-0.3079987
			c-0.0570068-0.1399994-0.1229858-0.2919998-0.2000122-0.4570007s-0.1520081-0.3300018-0.2340088-0.4940033
			s-0.1480103-0.3000031-0.2000122-0.4189987h-5.7219543c-0.0447693,0.1429291-0.0985413,0.2828751-0.1610107,0.4189987
			c-0.0740051,0.1650009-0.1520081,0.3300018-0.2349854,0.4940033s-0.1560059,0.3170013-0.2229919,0.4570007
			c-0.0524597,0.0954437-0.0863953,0.1999435-0.1000061,0.3079987c0,0.1139984,0.0419922,0.1809998,0.1229858,0.1999969
			c0.0657654,0.0143585,0.1327209,0.0223999,0.2000122,0.0240021v0.3000031h-3.7000122v-0.3000031
			c0.1031799-0.0000916,0.2052307-0.0211868,0.2999878-0.0619965c0.0900574-0.0302124,0.1628723-0.0975571,0.2000122-0.1849976
			c0.4946594-1.1513367,0.9970093-2.2906647,1.5069885-3.4179993c0.5100098-1.1273346,0.9630127-2.1486664,1.3590088-3.064003
			c0.4000244-0.9133301,0.7333374-1.6703262,1-2.2709961c0.1657715-0.3277512,0.2997131-0.6706619,0.3999939-1.0240021
			c0-0.1480026-0.1069946-0.2300034-0.3210144-0.2470016v-0.3000031h5.1589966v0.3000031
			c-0.2149963,0.0159988-0.321991,0.0999985-0.321991,0.2470016c0.0661621,0.2254562,0.1528625,0.4443741,0.2590027,0.6539993
			c0.1740112,0.3860016,0.3999939,0.8720016,0.6789856,1.4560013s0.5889893,1.2300034,0.9249878,1.9369965
			s0.6740112,1.4150009,1.0130005,2.1240005s0.6530151,1.3789978,0.9500122,2.012001s0.5350037,1.1640015,0.7160034,1.5920029
			c0.0374451,0.0872192,0.1101379,0.1544495,0.2000122,0.1849976c0.0947571,0.0407562,0.1968384,0.0618515,0.2999878,0.0619965
			v0.3000031h-4.1000061L436.0934753,125.6729965z M432.7854614,117.6729965l-2.0239868,4.3190002h4.1000061
			L432.7854614,117.6729965z"/>
		<path id="パス_816" class="st0" d="M442.707489,115.8499985c0.019928-0.1497955-0.0670166-0.2932968-0.2090149-0.3450012
			c-0.1880188-0.0590057-0.3830566-0.0926361-0.5799866-0.0999985v-0.3000031h7.4299927
			c0.6351318-0.0065613,1.2699585,0.0305252,1.8999939,0.1110001c0.4504395,0.0497818,0.8865356,0.1884537,1.2829895,0.4079971
			c0.3240967,0.1916275,0.57901,0.4812088,0.7279968,0.8270035c0.1699219,0.4274216,0.2499084,0.8852844,0.2349854,1.3450012
			c0.0042114,0.5138626-0.1656799,1.0140076-0.4819946,1.4189987c-0.3013611,0.4036026-0.6945496,0.729599-1.1470032,0.9509964
			c0.5803223,0.1608353,1.1038208,0.4813232,1.5109863,0.9250031c0.369751,0.492691,0.5513306,1.1012573,0.5119934,1.7160034
			c0.0368042,0.8898087-0.3482666,1.7448502-1.0390015,2.3069992c-1.0023499,0.654747-2.1951904,0.9547195-3.3880005,0.8519974
			h-7.5440063v-0.3000031c0.1967773-0.008606,0.3916931-0.0422134,0.5799866-0.0999985
			c0.1419983-0.0517044,0.2289429-0.1952057,0.2090149-0.3450012L442.707489,115.8499985z M448.9524841,119.5499954
			c0.4617004,0.0560684,0.9272461-0.0678406,1.2999878-0.3460007c0.2188721-0.2237167,0.3385315-0.5260925,0.3320007-0.8389969
			c0-0.4929962-0.1350098-0.814003-0.4060059-0.961998c-0.3843384-0.169754-0.8035583-0.2455139-1.2229919-0.2210007h-2.940979
			v2.3690033L448.9524841,119.5499954z M448.7054749,123.8939972c0.5023193,0.0138779,1.0010376-0.0888062,1.4570007-0.3000031
			c0.3919373-0.1915512,0.6270447-0.6031036,0.5929871-1.038002c0.0161133-0.2675629-0.0487061-0.533783-0.1860046-0.7639999
			c-0.1159668-0.1791077-0.2837524-0.318634-0.4809875-0.4000015c-0.208313-0.0851746-0.4293213-0.1351852-0.6539917-0.1480026
			c-0.2380066-0.0159988-0.4819946-0.0250015-0.7279968-0.0250015h-2.6919861v2.6660004L448.7054749,123.8939972z"/>
		<path id="パス_817" class="st0" d="M456.3344727,115.8499985c0.0200195-0.1471939-0.0623169-0.2892227-0.2000122-0.3450012
			c-0.151062-0.0544662-0.3088379-0.0881042-0.4689941-0.0999985v-0.3000031h4.6159973v0.3000031
			c-0.1567078,0.0109253-0.3110046,0.0446091-0.4580078,0.0999985c-0.1306763,0.061882-0.2053833,0.2020187-0.1839905,0.3450012
			v7.5999985h6.7619934c0.1095276-0.0027084,0.2150574-0.0417557,0.2999878-0.1110001
			c0.1000061-0.0739975,0.1480103-0.2429962,0.1480103-0.5070038h0.2999878v3.6790009h-0.2999878
			c0-0.2639999-0.0490112-0.4199982-0.1480103-0.4690018c-0.0924377-0.0488358-0.1954346-0.0742416-0.2999878-0.0739975h-10.7339783
			v-0.3000031c0.1599731-0.0130997,0.3175964-0.0467072,0.4689941-0.0999985
			c0.1376953-0.0557785,0.2200317-0.1978073,0.2000122-0.3450012L456.3344727,115.8499985z"/>
		<path id="パス_818" class="st0" d="M479.9564819,123.7979965c0.3280029,0,0.5440063-0.2050018,0.6419983-0.6159973h0.2999878
			v3.2330017h-0.2470093c-0.0830078-0.2310028-0.1690063-0.3619995-0.2590027-0.4000015
			c-0.1403809-0.0396729-0.2862854-0.056221-0.4320068-0.0490036h-11.0100098v-0.3000031
			c0.1641846-0.0132446,0.3260803-0.0468369,0.4819946-0.0999985c0.1420288-0.0523529,0.229126-0.1958389,0.2099915-0.3460007
			v-9.3699951c0.0191345-0.1501617-0.0679626-0.2936478-0.2099915-0.3460007
			c-0.1559143-0.0531693-0.3178101-0.0867615-0.4819946-0.0999985v-0.3000031h11.2059937
			c0.1077881-0.0023422,0.2123413-0.0372009,0.2999878-0.0999985c0.1000061-0.0670013,0.1480103-0.2139969,0.1480103-0.4440002
			h0.2999878v3.3079987h-0.2999878c0-0.2480011-0.0490112-0.4079971-0.1480103-0.4820023
			c-0.0848389-0.0693817-0.1904297-0.1084442-0.2999878-0.1110001h-7.2059937v2h4.6400146
			c0.1095581-0.0034409,0.2149658-0.0427933,0.2999878-0.1119995c0.1167603-0.1215973,0.1713257-0.2900314,0.1480103-0.4570007
			h0.2999878v3.2089996h-0.2999878c0.0228577-0.1669235-0.0316467-0.3351669-0.1480103-0.4570007
			c-0.085144-0.0688477-0.1905212-0.1078491-0.2999878-0.1110001h-4.6400146v2.4430008L479.9564819,123.7979965z"/>
		<path id="パス_819" class="st0" d="M483.5325012,128.1669922c0.5135803-0.1998749,0.9927368-0.47892,1.4200134-0.8269958
			c0.4294128-0.3441315,0.7225342-0.8297043,0.8269958-1.3700027c-0.5775452,0.0175171-1.1478271-0.132515-1.6419983-0.4319992
			c-0.4745178-0.3315201-0.7339478-0.8927536-0.6789856-1.4690018c-0.0231018-0.5251846,0.206665-1.0296783,0.6180115-1.3570023
			c0.4052429-0.3262787,0.9118042-0.5006638,1.4320068-0.4929962c0.6105957-0.0544434,1.2088928,0.1949692,1.6000061,0.6669998
			c0.3518372,0.5232162,0.5248108,1.1462936,0.4930115,1.776001c0.0108337,0.5321503-0.111908,1.0585251-0.3569946,1.5309982
			c-0.2426147,0.4492798-0.5548096,0.8573227-0.9249878,1.2089996c-0.3897095,0.3690872-0.8301697,0.6805725-1.3080139,0.9250031
			c-0.4769592,0.2480316-0.9724426,0.4586639-1.4819946,0.6300049L483.5325012,128.1669922z"/>
		<path id="パス_820" class="st0" d="M504.3444824,125.6729965c0.0672913-0.0016174,0.1342468-0.0096512,0.2000122-0.0240021
			c0.0820007-0.0159988,0.1229858-0.0830002,0.1229858-0.1999969c-0.0108032-0.1069565-0.0402527-0.2111969-0.0870056-0.3079987
			c-0.0549927-0.1399994-0.1229858-0.2919998-0.2000122-0.4570007s-0.1520081-0.3300018-0.2349854-0.4940033
			s-0.1480103-0.3000031-0.2000122-0.4189987h-5.7260132c-0.0443115,0.1429443-0.0977783,0.2828979-0.1600037,0.4189987
			c-0.0740051,0.1650009-0.1530151,0.3300018-0.2369995,0.4940033s-0.1560059,0.3170013-0.2229919,0.4570007
			c-0.0524292,0.095459-0.0863647,0.1999512-0.1000061,0.3079987c0,0.1139984,0.0429993,0.1809998,0.125,0.1999969
			c0.0657349,0.0144196,0.1327209,0.0224609,0.2000122,0.0240021v0.3000031h-3.7000122v-0.3000031
			c0.1011963-0.0005951,0.2012024-0.0216827,0.2940063-0.0619965c0.0900574-0.0302124,0.1628723-0.0975571,0.2000122-0.1849976
			c0.4960022-1.1513367,0.9983215-2.2906647,1.5069885-3.4179993s0.9656982-2.1476593,1.3710022-3.060997
			c0.3999939-0.913002,0.7359924-1.6699982,1-2.2709961c0.1660461-0.3276291,0.3000183-0.6705627,0.3999939-1.0240021
			c0-0.1480026-0.1080017-0.2300034-0.3210144-0.2470016v-0.3000031h5.1579895v0.3000031
			c-0.2139893,0.0159988-0.3210144,0.0999985-0.3210144,0.2470016c0.0661621,0.2254562,0.1528625,0.4443741,0.2590027,0.6539993
			c0.1740112,0.3860016,0.3999939,0.8720016,0.6789856,1.4560013s0.5880127,1.2300034,0.9230042,1.9369965
			s0.6759949,1.4150009,1.0130005,2.1240005s0.6539917,1.3789978,0.9500122,2.012001s0.5360107,1.1640015,0.7160034,1.5920029
			c0.0376587,0.0870667,0.11026,0.1542282,0.2000122,0.1849976c0.094696,0.0410309,0.1968079,0.0621338,0.2999878,0.0619965
			v0.3000031h-4.1000061L504.3444824,125.6729965z M501.0364685,117.6729965l-2.0239868,4.3190002h4.1000061
			L501.0364685,117.6729965z"/>
		<path id="パス_821" class="st0" d="M522.9014893,125.2300034c-0.0203857,0.1472702,0.0620728,0.2895126,0.2000122,0.3450012
			c0.1594238,0.0553513,0.3256226,0.0889893,0.4939575,0.0999985v0.3000031h-4.5699463v-0.3000031
			c0.1535645-0.0020065,0.3065796-0.0187531,0.4569702-0.0500031c0.1719971-0.0309982,0.2589722-0.1220016,0.2589722-0.2710037
			s-0.1809692-0.4240036-0.5419922-0.8280029c-0.3609619-0.4039993-0.8280029-0.9000015-1.3999634-1.4919968
			s-1.2050171-1.2559967-1.9110107-1.987999s-1.40802-1.5080032-2.1000366-2.3330002l-0.0489502,0.0500031v6.4670029
			c-0.0214233,0.1429825,0.0532837,0.2831192,0.18396,0.3450012c0.1468506,0.0548172,0.3006592,0.0884857,0.4570312,0.0999985
			v0.3000031h-4.2200317v-0.3000031c0.1479492-0.0131226,0.293335-0.0467758,0.4320068-0.0999985
			c0.1312866-0.0613098,0.2065735-0.2017136,0.1849976-0.3450012v-9.3799973
			c0.0196533-0.1471252-0.062561-0.2889404-0.2000122-0.3450012c-0.1512451-0.0538712-0.3089294-0.0874939-0.4689941-0.0999985
			v-0.3000031h5.875v0.3000031c-0.1192627,0.0178909-0.2355957,0.0515213-0.3460083,0.0999985
			c-0.1149902,0.0490036-0.1719971,0.1650009-0.1719971,0.3450012c0.1141357,0.1849594,0.2504883,0.3552322,0.4060059,0.5070038
			c0.2719727,0.3046646,0.6217041,0.6870041,1.0490112,1.1470032c0.4273071,0.4600067,0.9047241,0.9699936,1.4320068,1.5299988
			l1.5800171,1.6800003v-4.8640137c0.0200195-0.1471939-0.0623779-0.2892227-0.2000732-0.3450012
			c-0.1590576-0.0552597-0.3249512-0.0888901-0.492981-0.0999985v-0.3000031h4.3439941v0.3000031
			c-0.168396,0.0110092-0.3345337,0.0446472-0.4939575,0.0999985c-0.1376953,0.0557785-0.2200928,0.1978073-0.2000732,0.3450012
			L522.9014893,125.2300034z"/>
		<path id="パス_822" class="st0" d="M526.2344971,115.8499985c0.0212402-0.1432266-0.0539551-0.2834396-0.1849976-0.3450012
			c-0.1470947-0.055069-0.3013306-0.0887451-0.4580078-0.0999985v-0.3000031h7.4089966
			c0.8045654-0.022728,1.6044922,0.1287308,2.3450317,0.4440002c1.2299194,0.5443573,2.1484985,1.6147079,2.5,2.913002
			c0.3792114,1.3563232,0.3792114,2.7906799,0,4.1470032c-0.3515015,1.2982941-1.2700806,2.3686447-2.5,2.913002
			c-0.7403564,0.3158798-1.5404053,0.4673615-2.3450317,0.4440002H525.59552v-0.3000031
			c0.1566772-0.0112534,0.3109131-0.0449295,0.4580078-0.0999985c0.1312866-0.0613098,0.206543-0.2017136,0.1849976-0.3450012
			L526.2344971,115.8499985z M531.3184814,123.6009979c0.9710083,0.0849152,1.9428711-0.1538239,2.7640381-0.6790009
			c1.1184692-1.390686,1.1184692-3.3723145,0-4.7630005c-0.821167-0.525177-1.7930298-0.763916-2.7640381-0.6790009h-1.776001
			v6.1220016L531.3184814,123.6009979z"/>
		<path id="パス_823" class="st0" d="M546.4734497,115.8499985c0.0203857-0.1472702-0.0620728-0.2895126-0.2000122-0.3450012
			c-0.175354-0.0587616-0.3581543-0.0924301-0.5429688-0.0999985v-0.3000031h10.7379761
			c0.1078491-0.0020905,0.2124634-0.036972,0.2999878-0.0999985c0.1000366-0.0650024,0.1470337-0.2139969,0.1470337-0.4440002
			h0.2999878v3.4120026h-0.2999878c0.0253296-0.1742477-0.0285645-0.3507004-0.1470337-0.4810028
			c-0.085022-0.0692062-0.1904297-0.1085587-0.2999878-0.1119995H549.77948v2.3000031h4.5180054
			c0.1078491-0.0018387,0.2125854-0.0367432,0.2999878-0.0999985c0.0999756-0.064003,0.1469727-0.2129974,0.1469727-0.4440002
			h0.2999878v3.3079987h-0.2999878c0.0253906-0.1742477-0.0285645-0.3507004-0.1469727-0.4810028
			c-0.0848389-0.0693817-0.1904297-0.1084442-0.2999878-0.1110001H549.77948v3.3810043
			c-0.0200195,0.1471939,0.0623169,0.2892227,0.2000122,0.3450012c0.1595459,0.054863,0.3256226,0.0884857,0.4939575,0.0999985
			v0.3000031h-4.6900024v-0.3000031c0.1680298-0.0117416,0.3337402-0.0453568,0.493042-0.0999985
			c0.1379395-0.0554886,0.2203979-0.197731,0.2000122-0.3450012L546.4734497,115.8499985z"/>
		<path id="パス_824" class="st0" d="M570.22052,123.7979965c0.3280029,0,0.5440063-0.2050018,0.6419678-0.6159973h0.2999878
			v3.2330017h-0.2470093c-0.0830078-0.2310028-0.1690063-0.3619995-0.2589722-0.4000015
			c-0.1400757-0.0395966-0.2856445-0.0561523-0.4310303-0.0490036h-11.0100098v-0.3000031
			c0.1641846-0.0132217,0.3261108-0.046814,0.4819946-0.0999985c0.1420288-0.0523529,0.229126-0.1958389,0.210022-0.3460007
			v-9.3699951c0.019104-0.1501617-0.0679932-0.2936478-0.210022-0.3460007
			c-0.1558838-0.0531845-0.3178101-0.0867767-0.4819946-0.0999985v-0.3000031h11.2059937
			c0.1077881-0.0023422,0.2123413-0.0372009,0.2999878-0.0999985c0.1000366-0.0670013,0.1480103-0.2139969,0.1480103-0.4440002
			h0.2999878v3.3079987h-0.2999878c0-0.2480011-0.0490112-0.4079971-0.1480103-0.4820023
			c-0.0848389-0.069313-0.1904297-0.1083679-0.2999878-0.1110001h-7.2059937v2h4.6400146
			c0.1095581-0.0034409,0.2149658-0.0427933,0.2999878-0.1119995c0.1172485-0.1213455,0.1721802-0.2898636,0.1489868-0.4570007
			h0.2999878v3.2089996h-0.2999878c0.022644-0.1670837-0.0322266-0.3353424-0.1489868-0.4570007
			c-0.085144-0.0688477-0.1904907-0.1078491-0.2999878-0.1110001h-4.6400146v2.4430008L570.22052,123.7979965z"/>
		<path id="パス_825" class="st0" d="M574.4165039,115.8499985c0.0200195-0.1471939-0.0623169-0.2892227-0.2000122-0.3450012
			c-0.151062-0.0544891-0.3088379-0.0881348-0.4689941-0.0999985v-0.3000031h4.6159668v0.3000031
			c-0.1566772,0.0109253-0.3109741,0.0446091-0.4580078,0.0999985c-0.1306763,0.061882-0.2053833,0.2020187-0.18396,0.3450012
			v7.5999985h6.7619629c0.1095581-0.0027084,0.2150879-0.0417557,0.2999878-0.1110001
			c0.1000366-0.0739975,0.1480103-0.2429962,0.1480103-0.5070038h0.2999878v3.6790009h-0.2999878
			c0-0.2639999-0.0490112-0.4199982-0.1480103-0.4690018c-0.0924072-0.0488358-0.1954346-0.0742416-0.2999878-0.0739975h-10.7339478
			v-0.3000031c0.1599731-0.013092,0.3175659-0.0466995,0.4689941-0.0999985
			c0.1376953-0.0557785,0.2200317-0.1978073,0.2000122-0.3450012L574.4165039,115.8499985z"/>
		<path id="パス_826" class="st0" d="M587.8914795,115.8499985c0.0200195-0.1471939-0.0623169-0.2892227-0.2000122-0.3450012
			c-0.151062-0.0544662-0.3088379-0.0881042-0.4689941-0.0999985v-0.3000031h4.6220093v0.3000031
			c-0.1567383,0.0109253-0.3110352,0.0446091-0.4580078,0.0999985c-0.1306763,0.061882-0.2053833,0.2020187-0.18396,0.3450012
			v7.5999985h6.7619629c0.1094971-0.0027084,0.2150879-0.0417557,0.2999878-0.1110001
			c0.1000366-0.0739975,0.1480103-0.2429962,0.1480103-0.5070038h0.2999878v3.6790009h-0.2999878
			c0-0.2639999-0.0490112-0.4199982-0.1480103-0.4690018c-0.0924683-0.0488358-0.1954346-0.0742416-0.2999878-0.0739975h-10.7399902
			v-0.3000031c0.1599731-0.0131073,0.317627-0.0467224,0.4689941-0.0999985
			c0.1376953-0.0557785,0.2200317-0.1978073,0.2000122-0.3450012L587.8914795,115.8499985z"/>
		<path id="パス_827" class="st0" d="M606.7734985,114.961998c0.7885132,0.0019913,1.5732422,0.1099548,2.3330078,0.3209991
			c0.7617188,0.2047195,1.480896,0.5433273,2.1239624,1c0.6372681,0.4578476,1.1640625,1.0523376,1.5419922,1.7399979
			c0.7886963,1.5902557,0.7886963,3.4577408,0,5.0479965c-0.37854,0.6805801-0.9055786,1.2671127-1.5419922,1.7160034
			c-0.6430054,0.4481812-1.3629761,0.7742691-2.1239624,0.961998c-1.5300293,0.3941956-3.1349487,0.3941956-4.664978,0
			c-0.7602539-0.1881332-1.4794922-0.5141983-2.1220703-0.961998c-0.6367188-0.4485245-1.1638184-1.035141-1.5419922-1.7160034
			c-0.7902832-1.589859-0.7902832-3.4581375,0-5.0479965c0.3775635-0.687912,0.90448-1.2824783,1.5419922-1.7399979
			c0.6425781-0.456337,1.361084-0.7949219,2.1220703-1c0.7597656-0.2108536,1.5444336-0.3188171,2.3330078-0.3209991
			 M606.7745361,117.5789948c-0.4443359-0.0024872-0.8859253,0.0684738-1.3070068,0.2099991
			c-0.3950806,0.133255-0.7629395,0.3364868-1.0860596,0.5999985c-0.3092041,0.2515564-0.5579834,0.5693817-0.7279663,0.9300003
			c-0.3470459,0.7895432-0.3470459,1.6884537,0,2.4779968c0.1699829,0.3606033,0.4187622,0.678421,0.7279663,0.9300003
			c0.3227539,0.2639847,0.6907349,0.4672699,1.0860596,0.5999985c0.8535767,0.2800674,1.774353,0.2800674,2.6279297,0
			c0.3903809-0.1348572,0.7537231-0.3380127,1.072998-0.5999985c0.3088379-0.2519608,0.5576172-0.5696869,0.7280273-0.9300003
			c0.3453369-0.7899017,0.3453369-1.6880951,0-2.4779968c-0.1704102-0.3603134-0.4191895-0.6780396-0.7280273-0.9300003
			c-0.3195801-0.261528-0.6828003-0.4646378-1.072998-0.5999985c-0.425415-0.143425-0.8720093-0.2144165-1.3209839-0.2099991"/>
		<path id="パス_828" class="st0" d="M618.8404541,115.4059982c-0.1520996,0.0009918-0.3027344,0.0305023-0.4439697,0.086998
			c-0.1464233,0.0547409-0.2373047,0.2015457-0.2210083,0.3570023c0.0245972,0.1842422,0.0654297,0.3659439,0.1220093,0.5429993
			c0.0826416,0.2953339,0.1896362,0.6449966,0.3209839,1.0490036c0.1313477,0.4039993,0.2713623,0.8396683,0.4200439,1.3069992
			c0.1486816,0.4666672,0.2929688,0.9189987,0.4329834,1.3570023c0.1380005,0.4369965,0.2630005,0.8320007,0.3699951,1.1849976
			s0.177002,0.6139984,0.210022,0.7770004h0.0490112c0.0581665-0.2688065,0.1363525-0.5328827,0.2340088-0.7900009
			c0.123291-0.3446579,0.267334-0.7313385,0.4320068-1.1600037c0.1646729-0.4286728,0.3373413-0.8769989,0.5180054-1.3450012
			c0.1813354-0.4666672,0.3503418-0.9000015,0.506958-1.3000031c0.1560059-0.4000015,0.28302-0.7399979,0.3810425-1.0370026
			c0.0755005-0.1903152,0.1259155-0.3896637,0.1499634-0.5930023c0.015686-0.155899-0.0759888-0.3026733-0.2229614-0.3570023
			c-0.1415405-0.0566864-0.2925415-0.0862045-0.4450073-0.086998v-0.3000031h5.0119629v0.3000031
			c-0.1604004-0.0006638-0.319458,0.0288467-0.4689941,0.086998c-0.1469727,0.0543289-0.2386475,0.2011032-0.2229614,0.3570023
			c0.0373535,0.1773148,0.0912476,0.3507385,0.1610107,0.5179977c0.1066895,0.2953339,0.2380371,0.6533279,0.3939819,1.0739975
			c0.1560669,0.4206619,0.3250122,0.8773346,0.507019,1.3700027c0.1799927,0.4933319,0.3569946,0.962326,0.5310059,1.4069977
			c0.1740112,0.444664,0.3220215,0.8356628,0.4439697,1.1729965c0.1229858,0.336998,0.2000122,0.564003,0.2340088,0.6780014
			h0.0499878c0.0549316-0.2703094,0.1246948-0.537384,0.2090454-0.8000031
			c0.1066895-0.35466,0.2303467-0.7456665,0.3709717-1.1729965c0.1380005-0.4280014,0.28302-0.8679962,0.4299927-1.3209991
			c0.1470337-0.4530029,0.2890015-0.8789978,0.4200439-1.2829971c0.1309814-0.4039993,0.2390137-0.7519989,0.3209839-1.0490036
			c0.0625-0.1925888,0.1037598-0.3914413,0.1229858-0.5930023c0.015564-0.1552887-0.0750732-0.3016891-0.2210083-0.3570023
			c-0.1494751-0.0581512-0.3085938-0.0876617-0.4689941-0.086998v-0.3000031h4.1000366v0.3000031
			c-0.1745605,0.0026627-0.3383789,0.0847549-0.4450073,0.2229996c-0.0785522,0.1423721-0.1454468,0.2908554-0.2000122,0.4440002
			c-0.0506592,0.1646729-0.15802,0.5019989-0.3220215,1.012001s-0.3609619,1.1026688-0.5910034,1.7779999
			c-0.2299805,0.673996-0.4633179,1.3813324-0.7000122,2.1220016c-0.2366333,0.7406616-0.4636841,1.4290085-0.6810303,2.0650177
			c-0.2140503,0.6340027-0.3866577,1.1646729-0.5180054,1.5920029c-0.0823975,0.2343292-0.149231,0.4738541-0.2000122,0.7170029
			c0,0.1650009,0.2290039,0.2710037,0.6889648,0.3209991v0.3000031H625.40448v-0.3000031
			c0.4769897-0.0500031,0.7160034-0.1559982,0.7160034-0.3209991c-0.0267944-0.1948318-0.0764771-0.3858185-0.1480103-0.5690002
			c-0.1000366-0.3000031-0.2230225-0.6490021-0.3699951-1.060997c-0.1470337-0.4119949-0.3080444-0.8560028-0.4819946-1.3339996
			c-0.1740112-0.4779968-0.3410034-0.9300003-0.5060425-1.3570023c-0.164978-0.427002-0.2999878-0.8050003-0.4190063-1.1350021
			s-0.1900024-0.5599976-0.2229614-0.6920013h-0.0490112c-0.03302,0.1320038-0.1080322,0.3619995-0.2230225,0.6920013
			s-0.2550049,0.7070007-0.4199829,1.1350021c-0.1650391,0.4280014-0.3320312,0.8809967-0.5,1.3570023
			c-0.1680298,0.4760056-0.335022,0.9219971-0.4819946,1.3339996c-0.1470337,0.4120026-0.2720337,0.7649994-0.3710327,1.060997
			c-0.0708008,0.1833496-0.1201172,0.3742905-0.1469727,0.5690002c0,0.0999985,0.0620117,0.1689987,0.1849976,0.2089996
			c0.1495972,0.0476456,0.3023071,0.0850677,0.4569702,0.1119995v0.3000031h-5.1090088v-0.3000031
			c0.4440308-0.0500031,0.6660156-0.1559982,0.6660156-0.3209991c-0.0535278-0.276741-0.1273804-0.5491486-0.2210083-0.8150024
			c-0.1473389-0.4766617-0.3327026-1.0566711-0.5560303-1.7399979s-0.4656372-1.4240036-0.7269897-2.2220001
			c-0.2666016-0.7999954-0.5136719-1.5446625-0.7409668-2.2340012c-0.227356-0.6893311-0.4206543-1.2773361-0.5800171-1.7639999
			c-0.1569824-0.4860001-0.242981-0.7689972-0.2589722-0.8519974c-0.0150757-0.105072-0.0734863-0.1990204-0.1610107-0.2590027
			c-0.0714722-0.0402374-0.1520386-0.0615768-0.2340088-0.0619965v-0.3000031h4.3400269V115.4059982z"/>
		<path id="パス_829" class="st0" d="M635.9494629,122.2190018c1.0700073,0.0166092,1.9334106,0.8799973,1.9500122,1.9499969
			c0.0081787,0.5069351-0.2033081,0.9926224-0.5799561,1.3320007c-0.7698975,0.723877-1.9700928,0.723877-2.7399902,0
			c-0.3766479-0.3393784-0.5881348-0.8250656-0.5800171-1.3320007c0.0166626-1.0699997,0.8800049-1.9333878,1.9500122-1.9499969"/>
		<path id="パス_830" class="st0" d="M622.2005005,1.0609993c-2.53302,0.4450001-1.3909912,1.5879999-7.2780151,1.5879999
			H561.470459c-0.0963745-0.0362632-0.1973267-0.0588167-0.2999878-0.0669999h-18.9719849
			c-0.6362305-0.0022931-1.1538696,0.5116124-1.156189,1.1478403c-0.0002441,0.0677595,0.0054932,0.1354082,0.0171509,0.2021596
			c0.4450073,2.533,1.5880127,1.3909998,1.5880127,7.2779999v62.1159973c0,5.887001-1.1419678,4.7460022-1.5880127,7.2779999
			c-0.109314,0.6267624,0.3101196,1.2235031,0.9368896,1.3328629c0.0667114,0.0116425,0.1343994,0.0173798,0.2021484,0.0171356
			h18.9719849c0.6367798,0.0016327,1.1543579-0.5132523,1.1559448-1.150032
			c0.0001831-0.0670242-0.0054932-0.133934-0.0169067-0.1999664c-0.4450073-2.5329971-1.5880127-1.3909988-1.5880127-7.2779999
			V57.4069977c0-3.3919983,2.447998-3.7999992,3.3109741-3.8330002h36.617981c5.8870239,0,4.7460327,1.1419983,7.2780151,1.5880013
			c0.62677,0.1093597,1.2235107-0.3100777,1.3328857-0.9368401c0.0116577-0.0667534,0.017395-0.1343994,0.0171509-0.2021599
			V35.0499992c0.0015869-0.6367836-0.5132446-1.1543198-1.1500854-1.1559525
			c-0.0670166-0.0001717-0.1339111,0.0055008-0.1999512,0.0169525c-2.532959,0.4449997-1.3909912,1.5880013-7.2780151,1.5880013
			h-36.0939941c-3.3919678,0-3.7999878-2.447998-3.8330078-3.3129997v-7.6290016
			c0-3.3920002,2.447998-3.7999992,3.3110352-3.8330002h50.8880005c5.8869629,0,4.7459717,1.1420002,7.2779541,1.5879993
			c0.6274414,0.1088047,1.2242432-0.311615,1.3330688-0.9390335c0.0114746-0.0660362,0.0171509-0.132946,0.0169678-0.1999664
			V2.1989994c0.001709-0.6362298-0.5126343-1.1534015-1.1488647-1.1551355
			C622.3341675,1.0436801,622.2669067,1.0494139,622.2005005,1.0609993"/>
		<path id="パス_831" class="st0" d="M83.0114822,62.2250023c-2.5329971,0.4449997-1.3909988,1.5880013-7.2779999,1.5880013
			H24.8454857c-0.8630009-0.0379982-3.3110008-0.4420013-3.3110008-3.8330002V11.2099991
			c0-5.8870001,1.1420002-4.7470002,1.5879993-7.2779999c0.1088028-0.6274204-0.3116207-1.2242467-0.9390411-1.3330488
			c-0.0660343-0.011451-0.1329403-0.017123-0.1999588-0.0169511H3.0094852
			C2.3732555,2.5802629,1.8560818,3.0946212,1.8543454,3.7308507C1.8541614,3.7982726,1.8598967,3.8655806,1.8714851,3.9319992
			c0.4450001,2.527,1.587,1.3910003,1.587,7.2779999V73.326004c0,5.887001-1.142,4.7460022-1.5880001,7.2779999
			c-0.1093582,0.6262054,0.3096268,1.222496,0.9358294,1.3318481c0.0670829,0.0117188,0.1350732,0.0174561,0.2031708,0.0171509
			h18.973999c0.1025467-0.0075378,0.2035294-0.0294189,0.2999992-0.0650024h53.4499969
			c5.887001,0,4.7460022,1.1419983,7.2779999,1.5879974c0.6274185,0.1088028,1.2242432-0.3116226,1.333046-0.9390411
			c0.0114517-0.0660324,0.017128-0.1329422,0.0169525-0.1999588V63.3590012
			c0.0022888-0.6362267-0.5116196-1.1538467-1.14785-1.1561356c-0.0677567-0.0002441-0.1353989,0.0054893-0.2021484,0.0171356"/>
		<path id="パス_832" class="st0" d="M278.4904785,73.4649963c-0.0005493,4.6883469-3.8016357,8.4885559-8.4899902,8.487999
			c-4.6883545-0.0005493-8.4885559-3.8016434-8.4880066-8.4899902c0.0005493-4.6875687,3.8004456-8.4874496,8.4880066-8.4880066
			c4.688324-0.0005569,8.4894409,3.7996521,8.4899902,8.487999
			C278.4904785,73.4636612,278.4904785,73.4643326,278.4904785,73.4649963"/>
		<path id="パス_833" class="st0" d="M394.8264771,73.4649963c-0.0005493,4.6883469-3.8016663,8.4885559-8.4899902,8.487999
			c-4.6883545-0.0005493-8.4885559-3.8016434-8.4880066-8.4899902c0.0005493-4.6875687,3.8004456-8.4874573,8.4880066-8.4880066
			c4.6883545-0.0005417,8.4894409,3.7996674,8.4899902,8.4880142
			C394.8264771,73.4636765,394.8264771,73.4643326,394.8264771,73.4649963"/>
		<path id="パス_834" class="st0" d="M638.1464844,73.4649963c-0.0005493,4.6883469-3.8016357,8.4885559-8.4899902,8.487999
			c-4.6883545-0.0005493-8.4885254-3.8016434-8.4879761-8.4899902c0.0005493-4.6875687,3.800415-8.4874573,8.4879761-8.4880066
			c4.6883545-0.0005417,8.4894409,3.7996674,8.4899902,8.4880142
			C638.1464844,73.4636765,638.1464844,73.4643326,638.1464844,73.4649963"/>
		<path id="パス_835" class="st0" d="M525.3234863,73.4649963c-0.0005493,4.6883469-3.8016357,8.4885559-8.4899902,8.487999
			c-4.6883545-0.0005493-8.4885559-3.8016434-8.4880066-8.4899902c0.0005493-4.6875687,3.8004456-8.4874573,8.4880066-8.4880066
			c4.6883545-0.0005417,8.4894409,3.7996674,8.4899902,8.4880142
			C525.3234863,73.4636765,525.3234863,73.4643326,525.3234863,73.4649963"/>
		<path id="パス_836" class="st0" d="M181.60849,42.2360001c0,4.3089981,0.7599945,6.0410004,2.4649963,9.4000015
			s4.0740051,5.112999,6.9299927,7.4169998c2.9915161,2.3779297,6.4093018,4.1631889,10.0699921,5.2600021
			c3.9186096,1.2106171,7.9986877,1.8175735,12.1000061,1.8000031c3.3851318-0.0180283,6.7588654-0.3937836,10.0650024-1.1210098
			c3.2799988-0.6835632,6.4974365-1.638855,9.6190033-2.8559952c2.0788116-0.7036171,4.0322876-1.7338562,5.7870026-3.052002
			c0.5310059-0.387001,2.0079956-1.473999,2.0079956-1.473999c1.4869995-1.3510017,1.0679932-1.887001,2.4369965-3.1189995
			c0.4739532-0.4252853,1.2029266-0.3858376,1.6282043,0.0881119c0.0448761,0.0500069,0.0852966,0.1038437,0.1207886,0.1608887
			l9.1459961,14.6329994c0.3387451,0.5392151,0.1762238,1.2509308-0.3629913,1.5896683
			c-0.0565796,0.0355453-0.1161346,0.0661011-0.178009,0.0913315c-1.8999939,0.7710037-2.0559998-0.0790024-4.5870056,1.1409988
			l-1.5,0.8580017c-2.2546692,1.2000046-5.1100006,2.5530014-8.5659943,4.0589981
			c-3.8197632,1.6233902-7.7663574,2.9304428-11.8000031,3.9079971c-4.5240021,1.1165314-9.1682892,1.6717072-13.8280029,1.6529999
			c-6.1425018,0.0240097-12.260025-0.7833176-18.1860046-2.4000015c-5.5610962-1.4802856-10.7897339-4.005188-15.4069977-7.4400024
			c-4.4377899-3.3274078-8.0622253-7.6189346-10.6000061-12.5509987
			c-2.7047882-5.4609489-4.0411682-11.4976845-3.8939667-17.5899925
			c-0.1170044-7.8520012,3.9080048-18.0359993,3.9080048-18.0359993c2.5377808-4.9320679,6.1622162-9.2235966,10.6000061-12.5510006
			c4.6172485-3.4348345,9.8459015-5.9597373,15.4069977-7.4399996c5.9259796-1.6166863,12.0435028-2.4240122,18.1860046-2.4000001
			c4.6597137-0.0186985,9.3040009,0.5364802,13.8280029,1.6529999c4.0336609,0.97755,7.9802399,2.2846074,11.8000031,3.908
			c3.4559937,1.5033326,6.3113251,2.8563333,8.5659943,4.0589995l1.5,0.8579998
			c2.5310059,1.2200003,2.6820068,0.3699999,4.5870056,1.1409998c0.5896454,0.2404261,0.872757,0.9133377,0.6323242,1.5029898
			c-0.0252228,0.0618706-0.0557861,0.1214314-0.0913239,0.17801l-9.155014,14.6269989
			c-0.3364258,0.540657-1.0474548,0.7062168-1.5881042,0.3697872c-0.0570526-0.0354977-0.1108856-0.0759144-0.1608887-0.1207867
			c-1.3690033-1.2320004-0.9499969-1.7679996-2.4369965-3.1189995c0,0-1.477005-1.0869999-2.0079956-1.4750004
			c-1.7550201-1.3176708-3.7084045-2.347868-5.7870026-3.052c-3.3033295-1.2152615-6.6966858-2.1701775-10.1490021-2.8560009
			c-3.3075409-0.7296677-6.6829834-1.1074371-10.0699921-1.1270008c-4.1881866-0.0174046-8.3556061,0.5892544-12.3650055,1.7999992
			c-3.6602631,1.0978584-7.0778656,2.8830185-10.0699921,5.2600002c-2.8560028,2.2999992-4.9620056,4.059-6.6649933,7.4169998
			c-1.4622803,2.7448006-2.1322479,5.8422432-1.9349976,8.9459991"/>
		<path id="パス_837" class="st0" d="M332.9594727,2.2559993c5.525116,0.0285354,11.0164185,0.8640232,16.2999878,2.4799998
			c5.4301758,1.6043448,10.5480957,4.1201868,15.1350098,7.4399996c4.587616,3.3366995,8.4084167,7.6161022,11.2059937,12.5510006
			c3.0202942,5.496067,4.5263062,11.6958294,4.3640137,17.9650021c0.1609802,6.2680054-1.3457031,12.466301-4.3659973,17.9609985
			c-2.7969055,4.9353867-6.6178284,9.2149277-11.2059937,12.5510025c-4.5628357,3.3077927-9.6922607,5.7530365-15.1350098,7.2149963
			c-10.658783,3.0060349-21.9412231,3.0060349-32.6000061,0c-5.4426575-1.4622116-10.5720215-3.9074326-15.1349792-7.2149963
			c-4.587738-3.3383179-8.4082336-7.6194458-11.2050171-12.5560036c-3.0182495-5.4936752-4.5248413-11.6898117-4.3659973-17.9559975
			c-0.1595764-6.2678566,1.3470154-12.4657974,4.3659973-17.9610004c2.7983398-4.9343567,6.6190186-9.2136126,11.2059937-12.5510006
			c4.5870667-3.3195791,9.7049255-5.8354015,15.1350098-7.4399996c5.2835999-1.6158376,10.7749023-2.4513216,16.2999878-2.48
			 M332.9584656,18.2450008c-3.7469788,0.0091076-7.4727783,0.5618668-11.0610046,1.6410007
			c-3.5535583,1.0308533-6.9191589,2.6240177-9.9689941,4.7189999c-2.907135,1.9954224-5.3605652,4.5817451-7.1999817,7.5899982
			c-1.867157,3.0908966-2.82547,6.6454239-2.7650146,10.2560005c-0.0605164,3.6109009,0.8977661,7.1657715,2.7650146,10.257
			c1.8402405,3.0076332,4.2935181,5.5937996,7.1999817,7.5900002c3.0501709,2.0941811,6.4156799,3.6869736,9.9689941,4.7179985
			c7.2115479,2.1890411,14.9104614,2.1890411,22.1220093,0c3.5532532-1.0340385,6.9186401-2.6287804,9.9690247-4.723999
			c2.9049988-1.9979324,5.3579407-4.5837555,7.2000122-7.5900002c1.8656006-3.0919304,2.823761-6.6463165,2.7650146-10.257
			c0.0592346-3.6089516-0.897522-7.1618347-2.7610474-10.2530022c-1.8413696-3.0067711-4.2944641-5.5927238-7.2000122-7.5899982
			c-3.0501404-2.093811-6.4152222-3.6868877-9.9679871-4.7189999c-3.5882874-1.0787754-7.3140564-1.6315269-11.0610046-1.6410007"/>
		<path id="パス_838" class="st0" d="M421.2055054,77.0510025c-5.3150024-2.2320023-5.0799866-0.6869965-7.5270081-1.4729996
			c-0.6058044-0.1961823-0.9378967-0.8463211-0.7416992-1.4521332c0.0205383-0.0634232,0.0465393-0.124939,0.0776978-0.1838684
			l8.1629944-15.4740028c0.2952271-0.564209,0.9919434-0.7822533,1.5561523-0.4870186
			c0.0593262,0.0310364,0.1158142,0.0671768,0.1688538,0.108017c2.0329895,1.5740013,0.4920044,2.0530014,5.7000122,4.7999992
			l0.7120056,0.3569984c2.5282898,1.0665894,5.1401062,1.9231567,7.8089905,2.560997
			c3.1424561,0.9134064,6.3381653,1.632431,9.5690002,2.1529999c2.9613037,0.5118484,5.9589539,0.7850571,8.9639893,0.8170013
			c1.95401,0,4.482666-0.1236649,7.5859985-0.3710022c3.0868225-0.2426834,6.1453247-0.7644806,9.1380005-1.5589981
			c2.7381592-0.684906,5.3547363-1.7867889,7.7579956-3.2669983c2.1830139-1.3849983,3.276001-2.6940002,3.276001-4.9720001
			s-1.0079956-3.4350014-3.0169983-4.5250015c-2.4897766-1.2353897-5.1712036-2.0391426-7.9299927-2.3769989
			c-3.714447-0.5331039-7.4561157-0.8552895-11.2070007-0.9650002c-4.1999817-0.1486664-8.4813232-0.3713341-12.8439941-0.6679993
			c-4.3626709-0.296669-8.642334-0.7929955-12.8390198-1.4889946c-3.8889771-0.5958557-7.6664124-1.7723083-11.2059937-3.4900017
			c-3.1585083-1.5331345-5.8845215-3.8301888-7.9309998-6.6829987c-2.0119934-2.8219986-3.0176697-6.5099983-3.0169983-11.0639992
			c0.02771-3.3535538,0.8866577-6.6478882,2.5-9.5880013c1.8511353-3.4420576,4.4781189-6.4059381,7.6730042-8.6569996
			c4.0457458-2.5356483,8.4670105-4.4155335,13.1000061-5.5700006c6.0856018-1.5299504,12.3458557-2.25348,18.6199951-2.1519995
			c5.3113098-0.0604808,10.6179504,0.33699,15.8609924,1.1879998c4.4830017,0.7940001,8.3399963,1.7169998,11.6359863,2.5249999
			c3.5076599,0.9583659,6.9276123,2.212872,10.2229919,3.7500005c5.0939941,2.6999998,5,1.1400003,7.3649902,2.1409998
			c0.5857239,0.2484264,0.8591614,0.9246407,0.6107483,1.5103674c-0.0265503,0.0625849-0.0585938,0.1226969-0.0957336,0.1796331
			l-10.117981,15.5550003c-0.3449097,0.5352936-1.0584412,0.689642-1.5937195,0.3447437
			c-0.0558472-0.0359764-0.1084595-0.0767078-0.1572876-0.1217442c-1.8850098-1.75-0.3059998-2.0900002-5.2479858-5.2880001
			l-1.1570129-0.6369991c-2.3988953-1.2476006-4.9100037-2.2664337-7.5-3.0429993
			c-3.0499268-0.9319382-6.160675-1.651659-9.3099976-2.1539993c-5.9000244-0.9790249-11.9124146-1.0801182-17.8420105-0.3000011
			c-2.4837952,0.3009167-4.9358521,0.8226471-7.3269958,1.559c-1.9495239,0.6101246-3.784668,1.5386677-5.4309998,2.7479992
			c-1.2680664,0.8225403-2.0683899,2.2000027-2.1549988,3.7089996c0.0244446,2.0456657,1.1883545,3.9067078,3.0169983,4.8239994
			c2.4631042,1.3568478,5.1490784,2.2621078,7.9309998,2.6730003c3.7053223,0.6406822,7.4487,1.0375328,11.2059937,1.1879997
			c4.1946716,0.2000008,8.4760132,0.4473343,12.8439941,0.7420006c4.3062134,0.2893066,8.5937195,0.8100586,12.8439941,1.5600014
			c3.8871765,0.6428528,7.6613464,1.842865,11.2059937,3.5629997c3.1425476,1.5240593,5.8651733,3.7928429,7.9309998,6.6090012
			c2.0093384,2.7726707,3.0149841,6.3860016,3.0169983,10.8400002c0,5.1489983-1.5809937,10.1499977-4.7420044,13.4159966
			c-3.3124084,3.5504761-7.336731,6.3620529-11.809967,8.2509995c-4.8852844,2.0157318-10.0152283,3.3778305-15.2569885,4.0510025
			c-5.0628662,0.6186371-10.1575317,0.941185-15.2579956,0.9660034c-5.5041809,0.064476-11.0061035-0.2583237-16.4649963-0.9660034
			c-4.4259949-0.6429977-8.1000061-2.2220001-11.0339966-3.1640015c0,0-6.7000122-2.3000031-7.2999878-2.5449982"/>
		<path id="パス_839" class="st0" d="M148.7944946,1.3799993h5.0350037l-46.7720108,81.7249985h-4.7300034L148.7944946,1.3799993z
			"/>
	</g>
</g>
</svg>
