<svg xmlns="http://www.w3.org/2000/svg" width="199.22" height="11.38" viewBox="0 0 199.22 11.38">
  <path id="パス_924" data-name="パス 924" d="M8.32-6.4a4.14,4.14,0,0,0,1.49-.23.932.932,0,0,0,.59-.97.932.932,0,0,0-.59-.97A4.14,4.14,0,0,0,8.32-8.8H4.5v2.4Zm0,4.56a3.211,3.211,0,0,0,1.81-.39,1.206,1.206,0,0,0,.55-1.03,1.206,1.206,0,0,0-.55-1.03,3.211,3.211,0,0,0-1.81-.39H4.5v2.84Zm-.4-8.68a10.343,10.343,0,0,1,1.78.15,5.5,5.5,0,0,1,1.52.48,2.957,2.957,0,0,1,1.06.86,2.112,2.112,0,0,1,.4,1.31,1.828,1.828,0,0,1-.58,1.45,4.129,4.129,0,0,1-1.38.79v.04a3.916,3.916,0,0,1,1.59.89,2.284,2.284,0,0,1,.65,1.75,2.408,2.408,0,0,1-.26,1.11,2.559,2.559,0,0,1-.77.89,3.815,3.815,0,0,1-1.25.59A6.16,6.16,0,0,1,9,0H1.66V-.36q.56,0,.56-.36V-9.8q0-.36-.56-.36v-.36ZM22.44-5.84a5.49,5.49,0,0,0,1.2-.11,2.123,2.123,0,0,0,.76-.31,1.158,1.158,0,0,0,.4-.47,1.436,1.436,0,0,0,.12-.59,1.436,1.436,0,0,0-.12-.59,1.158,1.158,0,0,0-.4-.47,2.123,2.123,0,0,0-.76-.31,5.49,5.49,0,0,0-1.2-.11H18.98v2.96Zm.52-4.68a8.191,8.191,0,0,1,1.74.17,3.924,3.924,0,0,1,1.34.54,2.482,2.482,0,0,1,.86.96,3.175,3.175,0,0,1,.3,1.45,2.574,2.574,0,0,1-.78,2.02,4.2,4.2,0,0,1-2.1.94l2.66,3.8a.542.542,0,0,0,.33.24,1.708,1.708,0,0,0,.35.04V0H23.92V-.36a.735.735,0,0,0,.31-.06q.13-.06.13-.16a.454.454,0,0,0-.08-.23q-.08-.13-.24-.35l-2.2-3.12H18.98V-.72a.307.307,0,0,0,.13.27.878.878,0,0,0,.47.09V0H16.12V-.36q.58,0,.58-.36V-9.8q0-.36-.58-.36v-.36ZM37-4.08,35.32-7.8,33.44-4.08ZM29.46-.36a.585.585,0,0,0,.41-.26,4.308,4.308,0,0,0,.29-.5l3.7-7.78q.14-.26.25-.48a.88.88,0,0,0,.11-.38.3.3,0,0,0-.14-.28,1.177,1.177,0,0,0-.3-.12v-.36h3.38v.36a1.624,1.624,0,0,0-.28.11.292.292,0,0,0-.14.29.793.793,0,0,0,.07.32q.07.16.21.42L41.18-.88a.684.684,0,0,0,.27.32,4.2,4.2,0,0,0,.39.2V0H38.32V-.36a.472.472,0,0,0,.2-.06.192.192,0,0,0,.12-.18,1.246,1.246,0,0,0-.16-.52L37.72-2.6H32.84l-.72,1.42a1.68,1.68,0,0,0-.2.6q0,.22.38.22V0H29.46Zm14.82,0q.38,0,.38-.36V-9.8q0-.36-.38-.36v-.36H47.7v.36q-.16,0-.16.2,0,.16.4.56l5.74,5.96V-9.8q0-.36-.52-.36v-.36h3.02v.36q-.38,0-.38.36V-.72q0,.36.38.36V0H52.94V-.36q.26,0,.26-.18,0-.14-.32-.46l-6.1-6.36V-.72q0,.36.46.36V0H44.28ZM65.42-1.72a7.426,7.426,0,0,0,1.64-.16,2.567,2.567,0,0,0,1.16-.57,2.5,2.5,0,0,0,.69-1.09,5.448,5.448,0,0,0,.23-1.72,5.448,5.448,0,0,0-.23-1.72,2.5,2.5,0,0,0-.69-1.09,2.567,2.567,0,0,0-1.16-.57,7.426,7.426,0,0,0-1.64-.16h-3.1v7.08Zm.8-8.8a6.383,6.383,0,0,1,2.05.32,4.505,4.505,0,0,1,1.65.97,4.5,4.5,0,0,1,1.1,1.64,6.2,6.2,0,0,1,.4,2.33,6.2,6.2,0,0,1-.4,2.33,4.5,4.5,0,0,1-1.1,1.64,4.505,4.505,0,0,1-1.65.97A6.383,6.383,0,0,1,66.22,0H59.58V-.36q.46,0,.46-.36V-9.8q0-.36-.46-.36v-.36ZM81.3-3.3l.2.1a.633.633,0,0,0,.08.32,1.427,1.427,0,0,0,.55.47,5.607,5.607,0,0,0,.94.41,8.2,8.2,0,0,0,1.11.29,5.641,5.641,0,0,0,1.04.11q.34,0,.88-.05a5.237,5.237,0,0,0,1.06-.21,2.981,2.981,0,0,0,.9-.44.876.876,0,0,0,.38-.74.747.747,0,0,0-.35-.68,2.56,2.56,0,0,0-.92-.32,9.95,9.95,0,0,0-1.3-.13q-.73-.03-1.49-.09a13.579,13.579,0,0,1-1.49-.2,4.124,4.124,0,0,1-1.3-.47,2.586,2.586,0,0,1-.92-.9,2.817,2.817,0,0,1-.35-1.49,2.777,2.777,0,0,1,.29-1.22A2.963,2.963,0,0,1,81.5-9.6a4.9,4.9,0,0,1,1.52-.75,7.209,7.209,0,0,1,2.16-.29,9.262,9.262,0,0,1,1.84.16,13.649,13.649,0,0,1,1.35.34q.57.18.96.34a1.791,1.791,0,0,0,.65.16.552.552,0,0,0,.4-.12l.24.16L89.24-7.1l-.2-.08a1.1,1.1,0,0,0-.16-.46,1.708,1.708,0,0,0-.53-.47,4.6,4.6,0,0,0-.87-.41,7.083,7.083,0,0,0-1.08-.29,6.213,6.213,0,0,0-1.16-.11,6.177,6.177,0,0,0-.91.07,4.285,4.285,0,0,0-.85.21,1.875,1.875,0,0,0-.63.37.743.743,0,0,0-.25.57.815.815,0,0,0,.35.72,2.55,2.55,0,0,0,.92.36,8.654,8.654,0,0,0,1.3.16q.73.04,1.49.1a12.144,12.144,0,0,1,1.49.21,4.305,4.305,0,0,1,1.3.48,2.614,2.614,0,0,1,.92.89,2.721,2.721,0,0,1,.35,1.46,2.566,2.566,0,0,1-.55,1.7A3.877,3.877,0,0,1,88.8-.58a6.175,6.175,0,0,1-1.77.51,13.105,13.105,0,0,1-1.77.13,11.751,11.751,0,0,1-1.91-.13,7.135,7.135,0,0,1-1.28-.32,8.575,8.575,0,0,1-.81-.34,1.2,1.2,0,0,0-.52-.15.333.333,0,0,0-.26.16L80.2-.88ZM99.46-.72q0,.36.44.36V0H96.82V-.36a.384.384,0,0,0,.25-.09.328.328,0,0,0,.11-.27V-8.68h-3.3a.682.682,0,0,0-.35.1.4.4,0,0,0-.17.38H93V-11h.36a.4.4,0,0,0,.17.38.682.682,0,0,0,.35.1h8.88a.682.682,0,0,0,.35-.1.4.4,0,0,0,.17-.38h.36v2.8h-.36a.4.4,0,0,0-.17-.38.682.682,0,0,0-.35-.1h-3.3Zm13.02-3.36L110.8-7.8l-1.88,3.72ZM104.94-.36a.585.585,0,0,0,.41-.26,4.308,4.308,0,0,0,.29-.5l3.7-7.78q.14-.26.25-.48a.88.88,0,0,0,.11-.38.3.3,0,0,0-.14-.28,1.177,1.177,0,0,0-.3-.12v-.36h3.38v.36a1.624,1.624,0,0,0-.28.11.292.292,0,0,0-.14.29.793.793,0,0,0,.07.32q.07.16.21.42l4.16,8.14a.684.684,0,0,0,.27.32,4.2,4.2,0,0,0,.39.2V0H113.8V-.36a.472.472,0,0,0,.2-.06.192.192,0,0,0,.12-.18,1.246,1.246,0,0,0-.16-.52L113.2-2.6h-4.88l-.72,1.42a1.68,1.68,0,0,0-.2.6q0,.22.38.22V0h-2.84Zm20.24-.36q0,.36.44.36V0h-3.08V-.36a.384.384,0,0,0,.25-.09.328.328,0,0,0,.11-.27V-8.68h-3.3a.682.682,0,0,0-.35.1.4.4,0,0,0-.17.38h-.36V-11h.36a.4.4,0,0,0,.17.38.682.682,0,0,0,.35.1h8.88a.682.682,0,0,0,.35-.1A.4.4,0,0,0,129-11h.36v2.8H129a.4.4,0,0,0-.17-.38.682.682,0,0,0-.35-.1h-3.3Zm16.66-7.64a.367.367,0,0,0-.17-.33,1.149,1.149,0,0,0-.59-.11H134.6v2.48h3.92a1.414,1.414,0,0,0,.62-.11q.22-.11.22-.57h.36v3.12h-.36q0-.46-.22-.59a1.226,1.226,0,0,0-.62-.13H134.6v2.76h6.68a.805.805,0,0,0,.49-.14.447.447,0,0,0,.19-.38h.36V.38h-.36q0-.3-.19-.34a2.453,2.453,0,0,0-.49-.04h-9.32V-.36a.384.384,0,0,0,.25-.09.328.328,0,0,0,.11-.27V-9.8a.328.328,0,0,0-.11-.27.384.384,0,0,0-.25-.09v-.36h9.12a1,1,0,0,0,.59-.13.418.418,0,0,0,.17-.35h.36v2.64Zm3.58,8a.454.454,0,0,0,.28-.09.316.316,0,0,0,.12-.27V-9.84a.265.265,0,0,0-.12-.25.546.546,0,0,0-.28-.07v-.36h3.74v.36a.439.439,0,0,0-.21.06.193.193,0,0,0-.11.18.623.623,0,0,0,.08.26q.08.16.18.34l2.86,5.2,2.88-5.14q.14-.26.21-.41a.649.649,0,0,0,.07-.27q0-.22-.26-.22v-.36h3.7v.36a.546.546,0,0,0-.28.07.265.265,0,0,0-.12.25V-.72a.316.316,0,0,0,.12.27.454.454,0,0,0,.28.09V0h-3.14V-.36q.54,0,.54-.36V-7.36h-.04L151.9,0h-.06L147.9-7.38h-.04V-.72q0,.36.56.36V0h-3Zm26.58-8a.367.367,0,0,0-.17-.33,1.149,1.149,0,0,0-.59-.11h-6.48v2.48h3.92a1.414,1.414,0,0,0,.62-.11q.22-.11.22-.57h.36v3.12h-.36q0-.46-.22-.59a1.226,1.226,0,0,0-.62-.13h-3.92v2.76h6.68a.805.805,0,0,0,.49-.14.447.447,0,0,0,.19-.38h.36V.38h-.36q0-.3-.19-.34a2.453,2.453,0,0,0-.49-.04h-9.32V-.36a.384.384,0,0,0,.25-.09.328.328,0,0,0,.11-.27V-9.8a.328.328,0,0,0-.11-.27.384.384,0,0,0-.25-.09v-.36h9.12a1,1,0,0,0,.59-.13A.418.418,0,0,0,172-11h.36v2.64Zm3.64,8q.38,0,.38-.36V-9.8q0-.36-.38-.36v-.36h3.42v.36q-.16,0-.16.2,0,.16.4.56l5.74,5.96V-9.8q0-.36-.52-.36v-.36h3.02v.36q-.38,0-.38.36V-.72q0,.36.38.36V0H184.3V-.36q.26,0,.26-.18,0-.14-.32-.46l-6.1-6.36V-.72q0,.36.46.36V0h-2.96ZM196.7-.72q0,.36.44.36V0h-3.08V-.36a.384.384,0,0,0,.25-.09.328.328,0,0,0,.11-.27V-8.68h-3.3a.682.682,0,0,0-.35.1.4.4,0,0,0-.17.38h-.36V-11h.36a.4.4,0,0,0,.17.38.682.682,0,0,0,.35.1H200a.682.682,0,0,0,.35-.1.4.4,0,0,0,.17-.38h.36v2.8h-.36a.4.4,0,0,0-.17-.38.682.682,0,0,0-.35-.1h-3.3Z" transform="translate(-1.66 11)" fill="#fff"/>
</svg>
